<svg xmlns="http://www.w3.org/2000/svg" xmlns:xlink="http://www.w3.org/1999/xlink" width="1920" zoomAndPan="magnify" viewBox="0 0 1440 809.999993" height="1080" preserveAspectRatio="xMidYMid meet" version="1.0"><defs><g/><clipPath id="266f9a975a"><path d="M 472.949219 81 L 967 81 L 967 729 L 472.949219 729 Z M 472.949219 81 " clip-rule="nonzero"/></clipPath><clipPath id="fcbb5340eb"><path d="M 70.042969 328.460938 L 271.792969 328.460938 L 271.792969 389.210938 L 70.042969 389.210938 Z M 70.042969 328.460938 " clip-rule="nonzero"/></clipPath><clipPath id="87944721fe"><path d="M 148.996094 337 L 192.496094 337 L 192.496094 380.496094 L 148.996094 380.496094 Z M 148.996094 337 " clip-rule="nonzero"/></clipPath><clipPath id="58184a9034"><path d="M 86.628906 336.996094 L 130.128906 336.996094 L 130.128906 380.496094 L 86.628906 380.496094 Z M 86.628906 336.996094 " clip-rule="nonzero"/></clipPath><clipPath id="5138adf2eb"><path d="M 211.6875 336.996094 L 255.1875 336.996094 L 255.1875 380.496094 L 211.6875 380.496094 Z M 211.6875 336.996094 " clip-rule="nonzero"/></clipPath><clipPath id="c9aaf4b2f1"><path d="M 259.410156 465.265625 L 347.910156 465.265625 L 347.910156 540.265625 L 259.410156 540.265625 Z M 259.410156 465.265625 " clip-rule="nonzero"/></clipPath><clipPath id="f45c576a84"><path d="M 276.300781 476.34375 L 328.800781 476.34375 L 328.800781 528.84375 L 276.300781 528.84375 Z M 276.300781 476.34375 " clip-rule="nonzero"/></clipPath><clipPath id="2db2b297ee"><path d="M 489.984375 323.167969 L 720.226562 323.167969 L 720.226562 394.417969 L 489.984375 394.417969 Z M 489.984375 323.167969 " clip-rule="nonzero"/></clipPath><clipPath id="9f1e45f5a7"><path d="M 525.664062 323.167969 L 684.542969 323.167969 C 704.25 323.167969 720.222656 339.117188 720.222656 358.792969 C 720.222656 378.46875 704.25 394.417969 684.542969 394.417969 L 525.664062 394.417969 C 505.957031 394.417969 489.984375 378.46875 489.984375 358.792969 C 489.984375 339.117188 505.957031 323.167969 525.664062 323.167969 " clip-rule="nonzero"/></clipPath><clipPath id="776b853a91"><path d="M 490.460938 436.238281 L 719.957031 436.238281 L 719.957031 566.738281 L 490.460938 566.738281 Z M 490.460938 436.238281 " clip-rule="nonzero"/></clipPath><clipPath id="a3da57dfda"><path d="M 528.703125 436.238281 L 681.710938 436.238281 C 702.828125 436.238281 719.949219 453.402344 719.949219 474.578125 L 719.949219 528.398438 C 719.949219 549.574219 702.828125 566.738281 681.710938 566.738281 L 528.703125 566.738281 C 507.582031 566.738281 490.460938 549.574219 490.460938 528.398438 L 490.460938 474.578125 C 490.460938 453.402344 507.582031 436.238281 528.703125 436.238281 " clip-rule="nonzero"/></clipPath><clipPath id="35487b47fe"><path d="M 510.628906 568.242188 L 608.875 568.242188 L 608.875 681.492188 L 510.628906 681.492188 Z M 510.628906 568.242188 " clip-rule="nonzero"/></clipPath><clipPath id="b4ffac75bc"><path d="M 548.945312 568.242188 L 570.558594 568.242188 C 591.71875 568.242188 608.875 585.421875 608.875 606.613281 L 608.875 643.125 C 608.875 664.316406 591.71875 681.492188 570.558594 681.492188 L 548.945312 681.492188 C 527.78125 681.492188 510.628906 664.316406 510.628906 643.125 L 510.628906 606.613281 C 510.628906 585.421875 527.78125 568.242188 548.945312 568.242188 " clip-rule="nonzero"/></clipPath><clipPath id="ca6808a602"><path d="M 57.46875 585.929688 L 145.96875 585.929688 L 145.96875 660.929688 L 57.46875 660.929688 Z M 57.46875 585.929688 " clip-rule="nonzero"/></clipPath><clipPath id="dad687a333"><path d="M 71 591.902344 L 96 591.902344 L 96 618 L 71 618 Z M 71 591.902344 " clip-rule="nonzero"/></clipPath><clipPath id="83ee051055"><path d="M 104 591.902344 L 133 591.902344 L 133 620 L 104 620 Z M 104 591.902344 " clip-rule="nonzero"/></clipPath><clipPath id="7892615ff1"><path d="M 119.578125 647 L 127 647 L 127 654.890625 L 119.578125 654.890625 Z M 119.578125 647 " clip-rule="nonzero"/></clipPath><clipPath id="d827281cfd"><path d="M 124 636 L 134.964844 636 L 134.964844 648 L 124 648 Z M 124 636 " clip-rule="nonzero"/></clipPath><clipPath id="c66bde1c74"><path d="M 679.675781 113.667969 L 933.167969 113.667969 L 933.167969 262.167969 L 679.675781 262.167969 Z M 679.675781 113.667969 " clip-rule="nonzero"/></clipPath><clipPath id="d7d97a0965"><path d="M 717.910156 113.667969 L 894.925781 113.667969 C 905.066406 113.667969 914.792969 117.6875 921.964844 124.84375 C 929.132812 132 933.164062 141.703125 933.164062 151.824219 L 933.164062 224.007812 C 933.164062 234.128906 929.132812 243.835938 921.964844 250.992188 C 914.792969 258.144531 905.066406 262.167969 894.925781 262.167969 L 717.910156 262.167969 C 707.769531 262.167969 698.042969 258.144531 690.875 250.992188 C 683.703125 243.835938 679.675781 234.128906 679.675781 224.007812 L 679.675781 151.824219 C 679.675781 141.703125 683.703125 132 690.875 124.84375 C 698.042969 117.6875 707.769531 113.667969 717.910156 113.667969 " clip-rule="nonzero"/></clipPath><clipPath id="ebd2b6da93"><path d="M 1243.527344 153.316406 L 1350.027344 153.316406 L 1350.027344 228.316406 L 1243.527344 228.316406 Z M 1243.527344 153.316406 " clip-rule="nonzero"/></clipPath><clipPath id="ce2cf8c130"><path d="M 621.585938 487.488281 L 920.828125 487.488281 L 920.828125 680.988281 L 621.585938 680.988281 Z M 621.585938 487.488281 " clip-rule="nonzero"/></clipPath><clipPath id="a9ef79becb"><path d="M 659.871094 487.488281 L 882.535156 487.488281 C 892.6875 487.488281 902.425781 491.515625 909.605469 498.683594 C 916.785156 505.851562 920.820312 515.570312 920.820312 525.707031 L 920.820312 642.769531 C 920.820312 652.90625 916.785156 662.625 909.605469 669.792969 C 902.425781 676.960938 892.6875 680.988281 882.535156 680.988281 L 659.871094 680.988281 C 649.71875 680.988281 639.980469 676.960938 632.800781 669.792969 C 625.621094 662.625 621.585938 652.90625 621.585938 642.769531 L 621.585938 525.707031 C 621.585938 515.570312 625.621094 505.851562 632.800781 498.683594 C 639.980469 491.515625 649.71875 487.488281 659.871094 487.488281 " clip-rule="nonzero"/></clipPath><clipPath id="76fc4e3f46"><path d="M 1067.722656 544.863281 L 1174.222656 544.863281 L 1174.222656 619.863281 L 1067.722656 619.863281 Z M 1067.722656 544.863281 " clip-rule="nonzero"/></clipPath><clipPath id="356889cf17"><path d="M 1088.484375 557.128906 L 1154.484375 557.128906 L 1154.484375 611.128906 L 1088.484375 611.128906 Z M 1088.484375 557.128906 " clip-rule="nonzero"/></clipPath><clipPath id="95e1654069"><path d="M 1268.699219 159.992188 L 1330.199219 159.992188 L 1330.199219 221.492188 L 1268.699219 221.492188 Z M 1268.699219 159.992188 " clip-rule="nonzero"/></clipPath></defs><path fill="#ffffff" d="M 476.023438 723.78125 L 478.925781 84.011719 L 963.929688 86.21875 L 961.027344 725.984375 L 476.023438 723.78125 " fill-opacity="1" fill-rule="nonzero"/><g clip-path="url(#266f9a975a)"><path fill="#57648d" d="M 475.894531 80.960938 L 472.960938 726.808594 L 964.058594 729.046875 L 966.984375 83.179688 Z M 481.957031 87.074219 L 960.867188 89.246094 L 957.996094 722.925781 L 479.078125 720.75 L 481.957031 87.074219 " fill-opacity="1" fill-rule="nonzero"/></g><path fill="#42a3ab" d="M 516.421875 314.070312 L 665.894531 314.753906 L 666.710938 133.140625 L 517.253906 132.457031 L 516.421875 314.070312 " fill-opacity="1" fill-rule="nonzero"/><path fill="#e9654c" d="M 691.039062 169.070312 L 913.933594 170.078125 L 914.097656 134.996094 L 691.199219 133.988281 L 691.039062 169.070312 " fill-opacity="1" fill-rule="nonzero"/><path fill="#e9e9e9" d="M 768.269531 194.136719 L 913.828125 194.796875 L 913.882812 182.210938 L 768.332031 181.550781 L 768.269531 194.136719 " fill-opacity="1" fill-rule="nonzero"/><path fill="#e9e9e9" d="M 728.71875 387.027344 L 912.949219 387.851562 L 912.996094 375.273438 L 728.78125 374.441406 L 728.71875 387.027344 " fill-opacity="1" fill-rule="nonzero"/><path fill="#e9e9e9" d="M 728.574219 418.308594 L 912.804688 419.148438 L 912.863281 406.558594 L 728.640625 405.726562 L 728.574219 418.308594 " fill-opacity="1" fill-rule="nonzero"/><path fill="#e9e9e9" d="M 728.441406 449.601562 L 912.664062 450.433594 L 912.726562 437.847656 L 728.496094 437.007812 L 728.441406 449.601562 " fill-opacity="1" fill-rule="nonzero"/><path fill="#e9e9e9" d="M 728.296875 480.886719 L 912.519531 481.726562 L 912.574219 469.132812 L 728.34375 468.300781 L 728.296875 480.886719 " fill-opacity="1" fill-rule="nonzero"/><path fill="#e9e9e9" d="M 768.167969 218.117188 L 913.710938 218.777344 L 913.773438 206.183594 L 768.222656 205.523438 L 768.167969 218.117188 " fill-opacity="1" fill-rule="nonzero"/><path fill="#e9e9e9" d="M 768.046875 244.105469 L 913.597656 244.769531 L 913.65625 232.175781 L 768.101562 231.511719 L 768.046875 244.105469 " fill-opacity="1" fill-rule="nonzero"/><path fill="#e9e9e9" d="M 767.839844 288.535156 L 913.402344 289.203125 L 913.449219 276.609375 L 767.90625 275.949219 L 767.839844 288.535156 " fill-opacity="1" fill-rule="nonzero"/><path fill="#e9e9e9" d="M 767.730469 315.210938 L 913.273438 315.871094 L 913.328125 303.285156 L 767.785156 302.628906 L 767.730469 315.210938 " fill-opacity="1" fill-rule="nonzero"/><path fill="#e9654c" d="M 727.296875 353.433594 L 913.097656 354.273438 L 913.15625 341.683594 L 727.347656 340.851562 L 727.296875 353.433594 " fill-opacity="1" fill-rule="nonzero"/><path fill="#e9e9e9" d="M 515.074219 411.046875 L 698.519531 411.878906 L 698.574219 399.292969 L 515.136719 398.460938 L 515.074219 411.046875 " fill-opacity="1" fill-rule="nonzero"/><path fill="#e9e9e9" d="M 514.957031 437.714844 L 698.390625 438.546875 L 698.457031 425.960938 L 515.011719 425.128906 L 514.957031 437.714844 " fill-opacity="1" fill-rule="nonzero"/><path fill="#c0253b" d="M 514.820312 466.578125 L 560.726562 466.785156 L 560.78125 454.199219 L 514.875 453.988281 L 514.820312 466.578125 " fill-opacity="1" fill-rule="nonzero"/><path fill="#42a3ab" d="M 514.703125 493.257812 L 560.605469 493.453125 L 560.660156 480.871094 L 514.757812 480.664062 L 514.703125 493.257812 " fill-opacity="1" fill-rule="nonzero"/><path fill="#e9e9e9" d="M 701.003906 467.421875 L 560.726562 466.785156 L 560.78125 454.199219 L 701.058594 454.835938 L 701.003906 467.421875 " fill-opacity="1" fill-rule="nonzero"/><path fill="#e9e9e9" d="M 700.875 494.089844 L 560.605469 493.453125 L 560.660156 480.871094 L 700.9375 481.503906 L 700.875 494.089844 " fill-opacity="1" fill-rule="nonzero"/><path fill="#f7911c" d="M 514.589844 519.019531 L 560.488281 519.226562 L 560.542969 506.640625 L 514.636719 506.425781 L 514.589844 519.019531 " fill-opacity="1" fill-rule="nonzero"/><path fill="#82a738" d="M 514.464844 545.6875 L 560.367188 545.902344 L 560.421875 533.308594 L 514.519531 533.105469 L 514.464844 545.6875 " fill-opacity="1" fill-rule="nonzero"/><path fill="#e9e9e9" d="M 700.765625 519.859375 L 560.488281 519.226562 L 560.542969 506.640625 L 700.820312 507.277344 L 700.765625 519.859375 " fill-opacity="1" fill-rule="nonzero"/><path fill="#e9e9e9" d="M 700.636719 546.539062 L 560.367188 545.902344 L 560.421875 533.308594 L 700.691406 533.945312 L 700.636719 546.539062 " fill-opacity="1" fill-rule="nonzero"/><path fill="#e9654c" d="M 516.265625 379.761719 L 698.664062 380.59375 L 698.835938 340.714844 L 516.445312 339.882812 L 516.265625 379.761719 " fill-opacity="1" fill-rule="nonzero"/><path fill="#e9654c" d="M 728.132812 543.953125 L 910.53125 544.777344 L 910.710938 504.898438 L 728.320312 504.074219 L 728.132812 543.953125 " fill-opacity="1" fill-rule="nonzero"/><path fill="#e9e9e9" d="M 630.117188 631.832031 L 911.832031 633.117188 L 911.886719 620.523438 L 630.171875 619.246094 L 630.117188 631.832031 " fill-opacity="1" fill-rule="nonzero"/><path fill="#e9e9e9" d="M 630.230469 606.125 L 911.949219 607.40625 L 912.003906 594.816406 L 630.292969 593.53125 L 630.230469 606.125 " fill-opacity="1" fill-rule="nonzero"/><path fill="#e9e9e9" d="M 727.964844 580.859375 L 912.066406 581.691406 L 912.132812 569.105469 L 728.027344 568.265625 L 727.964844 580.859375 " fill-opacity="1" fill-rule="nonzero"/><path fill="#e9e9e9" d="M 630 658.507812 L 911.710938 659.785156 L 911.765625 647.191406 L 630.046875 645.914062 L 630 658.507812 " fill-opacity="1" fill-rule="nonzero"/><path fill="#e9654c" d="M 690.921875 193.78125 L 746.472656 194.035156 L 746.527344 181.449219 L 690.984375 181.195312 L 690.921875 193.78125 " fill-opacity="1" fill-rule="nonzero"/><path fill="#e9654c" d="M 690.816406 217.761719 L 746.359375 218.015625 L 746.414062 205.421875 L 690.871094 205.167969 L 690.816406 217.761719 " fill-opacity="1" fill-rule="nonzero"/><path fill="#42a3ab" d="M 600.949219 625.417969 C 600.847656 648.015625 582.4375 666.25 559.820312 666.152344 C 537.214844 666.050781 518.960938 647.644531 519.0625 625.042969 C 519.167969 602.4375 537.578125 584.1875 560.195312 584.292969 C 582.808594 584.386719 601.0625 602.800781 600.949219 625.417969 " fill-opacity="1" fill-rule="nonzero"/><path fill="#d26512" d="M 629.894531 229.820312 C 619.765625 250.128906 574.074219 251.480469 548.390625 229.441406 C 560.351562 213.882812 547.527344 179.59375 552.792969 169.386719 C 566.707031 142.433594 608.050781 139.546875 617.195312 153.542969 C 623.722656 154.066406 628.476562 164.621094 630.640625 171.878906 C 635.101562 186.832031 621.3125 216.46875 629.894531 229.820312 " fill-opacity="1" fill-rule="nonzero"/><path fill="#2e3448" d="M 625.042969 314.726562 C 628.300781 292.191406 631.734375 270.058594 631.734375 270.058594 C 631.734375 270.058594 616.464844 260.050781 591.710938 259.941406 C 566.953125 259.828125 551.023438 269.6875 551.023438 269.6875 C 551.023438 269.6875 553.910156 291.820312 556.585938 314.410156 L 625.042969 314.726562 " fill-opacity="1" fill-rule="nonzero"/><path fill="#c8dee7" d="M 603.339844 314.625 C 609.828125 290.605469 615.046875 262.089844 603.78125 260.726562 C 599.871094 260.25 595.785156 268.050781 591.675781 268.035156 C 586.878906 268.003906 584.671875 259.980469 579.984375 260.558594 C 568.792969 261.945312 574.765625 290.476562 581.890625 314.53125 L 603.339844 314.625 " fill-opacity="1" fill-rule="nonzero"/><path fill="#f9aa78" d="M 581.246094 259.882812 L 591.675781 268.035156 L 601.65625 259.980469 L 601.769531 235.144531 L 581.367188 235.046875 L 581.246094 259.882812 " fill-opacity="1" fill-rule="nonzero"/><path fill="#3a7574" d="M 581.316406 244.890625 C 581.316406 244.890625 581.308594 244.882812 581.308594 244.882812 L 581.316406 244.359375 L 581.316406 244.890625 " fill-opacity="1" fill-rule="nonzero"/><path fill="#ae4910" d="M 601.71875 244.976562 L 601.726562 243.5 L 601.71875 244.976562 M 581.316406 244.359375 L 581.324219 242.605469 L 581.316406 244.359375 " fill-opacity="1" fill-rule="nonzero"/><path fill="#cc784f" d="M 591.542969 249.996094 C 591.527344 249.996094 591.511719 249.996094 591.496094 249.996094 C 586.0625 249.972656 581.484375 245.070312 581.316406 244.890625 L 581.316406 244.359375 L 581.324219 242.605469 C 585.164062 244.808594 589.019531 246.261719 592.199219 246.277344 C 592.21875 246.277344 592.234375 246.277344 592.25 246.277344 C 595.015625 246.277344 598.332031 245.207031 601.726562 243.5 L 601.71875 244.976562 C 601.625 245.078125 597 249.996094 591.542969 249.996094 " fill-opacity="1" fill-rule="nonzero"/><path fill="#f9aa78" d="M 621.296875 224.921875 C 619.78125 232.050781 602.25 246.324219 592.199219 246.277344 C 582.144531 246.230469 565.324219 231.8125 563.730469 224.660156 C 560.78125 211.441406 555.339844 178.984375 559.605469 168.714844 C 563.882812 158.445312 572.417969 147.03125 591.265625 147.121094 C 610.53125 147.199219 620.328125 154.082031 624.082031 169.007812 C 627.832031 183.921875 624.4375 210.109375 621.296875 224.921875 " fill-opacity="1" fill-rule="nonzero"/><path fill="#f9aa78" d="M 631.816406 208.410156 C 629.339844 210.933594 623.90625 212.167969 622.796875 209.59375 C 621.773438 207.238281 617.09375 205.914062 617.109375 202.257812 C 617.117188 199.164062 623.773438 195.066406 623.773438 195.066406 C 623.773438 195.066406 625.914062 188.039062 631.195312 188.371094 C 636.105469 188.679688 635.902344 193.796875 635.511719 197.261719 C 635.117188 200.726562 634.242188 205.953125 631.816406 208.410156 " fill-opacity="1" fill-rule="nonzero"/><path fill="#f9aa78" d="M 552.808594 208.054688 C 555.269531 210.601562 560.6875 211.882812 561.820312 209.316406 C 562.867188 206.96875 567.5625 205.691406 567.578125 202.027344 C 567.59375 198.941406 560.988281 194.789062 560.988281 194.789062 C 560.988281 194.789062 558.894531 187.730469 553.609375 188.023438 C 548.707031 188.285156 549.515625 193.558594 549.882812 197.023438 C 550.238281 200.480469 550.414062 205.570312 552.808594 208.054688 " fill-opacity="1" fill-rule="nonzero"/><path fill="#df7b60" d="M 591.726562 230.464844 C 591.71875 230.464844 591.710938 230.464844 591.703125 230.464844 C 587.6875 230.449219 582.59375 225.507812 582.59375 225.507812 L 601.148438 225.585938 C 601.148438 225.585938 595.738281 230.464844 591.726562 230.464844 " fill-opacity="1" fill-rule="nonzero"/><path fill="#f08568" d="M 601.148438 225.585938 L 582.59375 225.507812 C 582.59375 225.507812 587.703125 222.699219 591.710938 222.699219 C 591.726562 222.699219 591.734375 222.699219 591.742188 222.699219 C 595.753906 222.714844 601.148438 225.585938 601.148438 225.585938 " fill-opacity="1" fill-rule="nonzero"/><path fill="#cc784f" d="M 591.226562 216.046875 L 591.335938 191.210938 L 596.121094 210.519531 L 591.226562 216.046875 " fill-opacity="1" fill-rule="nonzero"/><path fill="#d26512" d="M 579.628906 191.15625 C 579.628906 191.15625 576.328125 187.347656 572.726562 187.332031 C 568.101562 187.308594 566.578125 189.785156 566.578125 189.785156 L 566.191406 191.101562 C 566.191406 191.101562 569.214844 189.140625 572.078125 189.164062 C 577.75 189.203125 579.628906 191.15625 579.628906 191.15625 " fill-opacity="1" fill-rule="nonzero"/><path fill="#281619" d="M 571.519531 198.292969 C 571.503906 200.566406 572.75 202.425781 574.289062 202.433594 C 575.835938 202.441406 577.097656 200.601562 577.113281 198.316406 C 577.121094 196.03125 575.875 194.183594 574.335938 194.183594 C 572.789062 194.175781 571.527344 196.007812 571.519531 198.292969 " fill-opacity="1" fill-rule="nonzero"/><path fill="#ffffff" d="M 572.042969 196.753906 C 572.035156 197.378906 572.542969 197.894531 573.179688 197.902344 C 573.804688 197.902344 574.320312 197.394531 574.328125 196.761719 C 574.328125 196.144531 573.820312 195.628906 573.1875 195.628906 C 572.558594 195.621094 572.042969 196.128906 572.042969 196.753906 " fill-opacity="1" fill-rule="nonzero"/><path fill="#ffffff" d="M 574.035156 198.738281 C 574.035156 199.125 574.351562 199.449219 574.742188 199.449219 C 575.128906 199.449219 575.449219 199.132812 575.457031 198.746094 C 575.457031 198.355469 575.128906 198.039062 574.742188 198.039062 C 574.359375 198.039062 574.042969 198.347656 574.035156 198.738281 " fill-opacity="1" fill-rule="nonzero"/><path fill="#d26512" d="M 603.734375 191.265625 C 603.734375 191.265625 607.058594 187.484375 610.660156 187.5 C 615.285156 187.523438 616.785156 190.011719 616.785156 190.011719 L 617.164062 191.328125 C 617.164062 191.328125 614.148438 189.347656 611.292969 189.339844 C 605.613281 189.332031 603.734375 191.265625 603.734375 191.265625 " fill-opacity="1" fill-rule="nonzero"/><path fill="#281619" d="M 611.761719 198.476562 C 611.753906 200.757812 610.492188 202.597656 608.953125 202.589844 C 607.414062 202.582031 606.164062 200.734375 606.179688 198.449219 C 606.1875 196.167969 607.445312 194.328125 608.984375 194.335938 C 610.53125 194.34375 611.777344 196.199219 611.761719 198.476562 " fill-opacity="1" fill-rule="nonzero"/><path fill="#ffffff" d="M 611.253906 196.9375 C 611.253906 197.5625 610.746094 198.070312 610.113281 198.070312 C 609.476562 198.0625 608.976562 197.546875 608.976562 196.929688 C 608.976562 196.292969 609.492188 195.785156 610.128906 195.792969 C 610.753906 195.792969 611.261719 196.308594 611.253906 196.9375 " fill-opacity="1" fill-rule="nonzero"/><path fill="#ffffff" d="M 609.238281 198.894531 C 609.238281 199.285156 608.921875 199.601562 608.535156 199.601562 C 608.144531 199.601562 607.828125 199.285156 607.828125 198.886719 C 607.835938 198.5 608.144531 198.1875 608.542969 198.1875 C 608.929688 198.1875 609.238281 198.515625 609.238281 198.894531 " fill-opacity="1" fill-rule="nonzero"/><path fill="#1c1f2b" d="M 602.226562 314.617188 L 610.761719 314.65625 L 618.933594 299.390625 L 613.085938 293.902344 L 617.003906 288.289062 L 619.8125 266.878906 L 605.257812 261.019531 C 605.257812 261.019531 609.507812 279.121094 604.550781 303.878906 C 603.804688 307.613281 603.011719 311.191406 602.226562 314.617188 " fill-opacity="1" fill-rule="nonzero"/><path fill="#1c1f2b" d="M 573.527344 293.714844 L 567.632812 299.160156 L 575.667969 314.5 L 584.207031 314.539062 C 583.445312 311.113281 582.691406 307.519531 581.976562 303.777344 C 577.242188 278.980469 578.582031 260.605469 578.582031 260.605469 L 563.535156 267.472656 L 567.667969 291.707031 L 573.527344 293.714844 " fill-opacity="1" fill-rule="nonzero"/><path fill="#ffffff" d="M 608.28125 268.109375 L 591.675781 268.035156 L 603.457031 256.792969 Z M 608.28125 268.109375 " fill-opacity="1" fill-rule="nonzero"/><path fill="#ffffff" d="M 574.742188 267.957031 L 591.675781 268.035156 L 579.285156 257.816406 Z M 574.742188 267.957031 " fill-opacity="1" fill-rule="nonzero"/><path fill="#262a3b" d="M 556.847656 314.410156 C 557.542969 302.9375 555.285156 276.910156 551.039062 269.6875 C 544.890625 272.40625 540.554688 291.335938 537.523438 314.324219 L 556.847656 314.410156 " fill-opacity="1" fill-rule="nonzero"/><path fill="#262a3b" d="M 644.800781 314.816406 C 641.976562 291.792969 637.804688 272.835938 631.671875 270.058594 C 627.375 277.242188 624.222656 303.222656 624.753906 314.71875 L 644.800781 314.816406 " fill-opacity="1" fill-rule="nonzero"/><path fill="#f69b71" d="M 610.707031 216.324219 C 610.683594 216.324219 610.667969 216.324219 610.644531 216.324219 C 605.519531 216.300781 601.378906 213.714844 601.394531 210.542969 C 601.410156 207.378906 605.535156 204.835938 610.621094 204.835938 C 610.644531 204.835938 610.667969 204.835938 610.691406 204.835938 C 615.816406 204.859375 619.964844 207.453125 619.941406 210.625 C 619.933594 213.789062 615.800781 216.324219 610.707031 216.324219 " fill-opacity="1" fill-rule="nonzero"/><path fill="#f69b71" d="M 575.449219 216.167969 C 575.425781 216.167969 575.398438 216.167969 575.375 216.167969 C 570.253906 216.144531 566.101562 213.558594 566.128906 210.386719 C 566.136719 207.230469 570.269531 204.675781 575.351562 204.675781 C 575.375 204.675781 575.398438 204.675781 575.425781 204.675781 C 580.546875 204.699219 584.6875 207.300781 584.671875 210.464844 C 584.664062 213.621094 580.53125 216.167969 575.449219 216.167969 " fill-opacity="1" fill-rule="nonzero"/><path fill="#f68712" d="M 626.453125 198.972656 C 632.007812 189.496094 632.226562 176.738281 630.199219 169.03125 C 626.285156 154.113281 616.332031 139.175781 596.238281 139.078125 C 576.574219 138.992188 559.8125 146.945312 548.660156 168.894531 C 542.996094 180.046875 541.980469 216.125 551.175781 237.394531 C 551.175781 237.394531 551.675781 211.84375 572.910156 191.132812 C 582.769531 181.511719 597.871094 171.726562 602.949219 167.0625 C 606.851562 177.332031 626.453125 198.972656 626.453125 198.972656 " fill-opacity="1" fill-rule="nonzero"/><path stroke-linecap="butt" transform="matrix(3.752247, -0.000311605, 0.000311418, 3.75, 255.362981, 358.833312)" fill="none" stroke-linejoin="miter" d="M 3.749916 -0.0000298148 L 58.81379 0.000379032 " stroke="#e93c68" stroke-width="1" stroke-opacity="1" stroke-miterlimit="4"/><path stroke-linecap="butt" transform="matrix(3.752247, -0.000311605, 0.000311418, 3.75, 255.362981, 358.833312)" fill-opacity="1" fill="#e93c68" fill-rule="nonzero" stroke-linejoin="miter" d="M 3.500066 -0.000050576 C 3.500057 0.0989078 3.49068 0.195782 3.470892 0.292655 C 3.452145 0.389529 3.424029 0.483276 3.385503 0.573898 C 3.348018 0.66452 3.302205 0.750975 3.247023 0.833262 C 3.192882 0.915549 3.130413 0.990544 3.060658 1.06033 C 2.990902 1.130116 2.914901 1.192609 2.833695 1.246769 C 2.751448 1.301971 2.665038 1.347797 2.574464 1.386331 C 2.482849 1.423823 2.389153 1.451941 2.292334 1.470682 C 2.196556 1.490466 2.098698 1.499833 1.999799 1.499825 C 1.901941 1.499817 1.804083 1.490434 1.707268 1.471676 C 1.610453 1.451876 1.516761 1.423743 1.426193 1.386235 C 1.334585 1.347686 1.248182 1.301846 1.166985 1.247672 C 1.084747 1.192457 1.008757 1.129951 0.939012 1.060153 C 0.869268 0.991398 0.807853 0.915351 0.752685 0.833055 C 0.698557 0.7518 0.651717 0.665338 0.614248 0.573668 C 0.576778 0.48304 0.547636 0.389287 0.528905 0.292411 C 0.509134 0.195534 0.499772 0.0986585 0.49978 -0.000299884 C 0.499789 -0.0982166 0.509166 -0.196132 0.528954 -0.293006 C 0.547701 -0.388838 0.576858 -0.482585 0.614343 -0.574249 C 0.651828 -0.664871 0.697641 -0.751325 0.752823 -0.833612 C 0.808005 -0.914858 0.869433 -0.990894 0.939189 -1.06068 C 1.008944 -1.130466 1.084945 -1.19296 1.166151 -1.24712 C 1.248398 -1.302321 1.334809 -1.348147 1.426423 -1.38564 C 1.516997 -1.423132 1.610694 -1.452291 1.707512 -1.471033 C 1.804331 -1.490817 1.901148 -1.500184 2.000048 -1.500175 C 2.098947 -1.500167 2.195763 -1.490784 2.292578 -1.470984 C 2.389394 -1.452226 2.483085 -1.423052 2.573653 -1.385544 C 2.665261 -1.348037 2.751664 -1.302196 2.832861 -1.246981 C 2.915099 -1.192808 2.99109 -1.130301 3.060834 -1.060504 C 3.130578 -0.990706 3.191993 -0.915701 3.247161 -0.833405 C 3.30233 -0.751109 3.348129 -0.664647 3.385599 -0.574018 C 3.423069 -0.48339 3.45221 -0.389638 3.470941 -0.292761 C 3.490713 -0.195885 3.500074 -0.0990089 3.500066 -0.000050576 Z M 3.500066 -0.000050576 " stroke="#e93c68" stroke-width="1" stroke-opacity="1" stroke-miterlimit="4"/><path stroke-linecap="butt" transform="matrix(3.752247, -0.000311605, 0.000311418, 3.75, 490.118622, 358.813831)" fill-opacity="1" fill="#e93c68" fill-rule="nonzero" stroke-linejoin="miter" d="M -0.500083 -0.00039642 C -0.500091 0.0985619 -0.509468 0.196478 -0.529256 0.29231 C -0.548003 0.389183 -0.576119 0.482931 -0.614645 0.573552 C -0.65213 0.665216 -0.697943 0.751671 -0.753125 0.832916 C -0.807266 0.915203 -0.869735 0.99124 -0.939491 1.061025 C -1.009246 1.130811 -1.085248 1.192263 -1.166454 1.247465 C -1.2487 1.301625 -1.335111 1.348493 -1.425685 1.385985 C -1.5173 1.423477 -1.610996 1.451595 -1.707814 1.471378 C -1.803592 1.49012 -1.901451 1.499487 -2.00035 1.500521 C -2.098208 1.500513 -2.196065 1.490088 -2.29288 1.47133 C -2.389696 1.45153 -2.483387 1.423397 -2.573955 1.38589 C -2.664523 1.348382 -2.751966 1.3015 -2.833163 1.247326 C -2.915401 1.192111 -2.991392 1.130647 -3.061136 1.060849 C -3.129839 0.991052 -3.192295 0.915005 -3.247464 0.83375 C -3.301591 0.751454 -3.348431 0.664992 -3.385901 0.574364 C -3.423371 0.482694 -3.451471 0.388942 -3.471243 0.293107 C -3.489974 0.19623 -3.500376 0.0983126 -3.500368 0.000395939 C -3.50036 -0.0985624 -3.489941 -0.196478 -3.471194 -0.29231 C -3.452448 -0.389183 -3.423291 -0.482931 -3.385806 -0.573553 C -3.34832 -0.665216 -3.301466 -0.751671 -3.247325 -0.832916 C -3.192143 -0.915203 -3.130715 -0.99124 -3.06096 -1.061026 C -2.991204 -1.130812 -2.915203 -1.192264 -2.832956 -1.247465 C -2.75175 -1.301625 -2.66534 -1.348493 -2.573725 -1.385985 C -2.483151 -1.423478 -2.389455 -1.451595 -2.292636 -1.471379 C -2.195818 -1.490121 -2.099 -1.499488 -2.000101 -1.499479 C -1.901202 -1.500513 -1.804386 -1.490088 -1.70757 -1.47133 C -1.610755 -1.45153 -1.517063 -1.423398 -1.425455 -1.38589 C -1.334887 -1.348383 -1.248484 -1.3015 -1.166247 -1.247327 C -1.08505 -1.192112 -1.009059 -1.130647 -0.939315 -1.06085 C -0.869571 -0.991052 -0.807114 -0.915005 -0.752987 -0.833751 C -0.697818 -0.751455 -0.65202 -0.664992 -0.61455 -0.574364 C -0.576039 -0.482694 -0.547938 -0.388942 -0.529208 -0.293107 C -0.509436 -0.196231 -0.500075 -0.0983131 -0.500083 -0.00039642 Z M -0.500083 -0.00039642 " stroke="#e93c68" stroke-width="1" stroke-opacity="1" stroke-miterlimit="4"/><g clip-path="url(#fcbb5340eb)"><path fill="#e93c68" d="M 70.050781 377.886719 L 70.050781 339.785156 C 70.050781 333.542969 75.128906 328.460938 81.363281 328.460938 L 260.46875 328.460938 C 266.703125 328.460938 271.78125 333.542969 271.78125 339.785156 L 271.78125 377.886719 C 271.78125 384.125 266.703125 389.210938 260.46875 389.210938 L 81.363281 389.210938 C 75.128906 389.210938 70.050781 384.125 70.050781 377.886719 " fill-opacity="1" fill-rule="nonzero"/></g><g clip-path="url(#87944721fe)"><path fill="#ffffff" d="M 181.558594 337.015625 L 159.894531 337.015625 C 153.894531 337.015625 148.996094 341.914062 148.996094 347.914062 L 148.996094 369.613281 C 148.996094 375.582031 153.894531 380.480469 159.894531 380.480469 L 181.59375 380.480469 C 187.597656 380.480469 192.496094 375.582031 192.496094 369.578125 L 192.496094 347.914062 C 192.460938 341.914062 187.5625 337.015625 181.558594 337.015625 Z M 163.484375 372.199219 L 157.273438 372.199219 L 157.273438 354.261719 L 163.484375 354.261719 Z M 160.34375 351.503906 C 158.585938 351.503906 157.171875 350.089844 157.171875 348.328125 C 157.171875 346.570312 158.585938 345.15625 160.34375 345.15625 C 162.105469 345.15625 163.519531 346.570312 163.519531 348.328125 C 163.484375 350.089844 162.070312 351.503906 160.34375 351.503906 Z M 184.183594 372.199219 L 179.007812 372.199219 L 179.007812 363.507812 C 179.007812 361.402344 178.730469 358.710938 175.867188 358.710938 C 172.9375 358.710938 172.453125 360.988281 172.453125 363.371094 L 172.453125 372.199219 L 167.277344 372.199219 L 167.277344 354.261719 L 172.109375 354.261719 L 172.109375 356.675781 L 172.246094 356.675781 C 173.003906 355.296875 174.765625 354.226562 177.523438 354.226562 C 183.214844 354.226562 184.214844 357.503906 184.214844 362.371094 L 184.214844 372.199219 Z M 184.183594 372.199219 " fill-opacity="1" fill-rule="nonzero"/></g><g clip-path="url(#58184a9034)"><path fill="#ffffff" d="M 119.21875 336.996094 L 97.503906 336.996094 C 91.53125 336.996094 86.628906 341.898438 86.628906 347.90625 L 86.628906 369.621094 C 86.628906 375.59375 91.53125 380.496094 97.503906 380.496094 L 119.21875 380.496094 C 125.226562 380.496094 130.128906 375.59375 130.128906 369.585938 L 130.128906 347.90625 C 130.128906 341.898438 125.226562 336.996094 119.21875 336.996094 Z M 114.214844 358.746094 L 110.105469 358.746094 L 110.105469 372.210938 L 104.925781 372.210938 L 104.925781 358.746094 L 102.164062 358.746094 L 102.164062 353.222656 L 104.582031 353.222656 L 104.582031 350.875 C 104.582031 348.667969 105.6875 345.179688 110.347656 345.179688 L 114.59375 345.179688 L 114.59375 349.769531 L 111.589844 349.769531 C 111.105469 349.769531 110.449219 350.082031 110.449219 351.152344 L 110.449219 353.222656 L 114.695312 353.222656 Z M 114.214844 358.746094 " fill-opacity="1" fill-rule="nonzero"/></g><path fill="#ffffff" d="M 232.949219 361.101562 C 231.101562 359.582031 229.867188 357.707031 229.21875 356.640625 L 228.738281 355.726562 C 228.90625 355.546875 230.195312 354.164062 230.753906 353.417969 C 231.457031 352.476562 230.4375 351.625 230.4375 351.625 C 230.4375 351.625 227.574219 348.757812 226.917969 348.191406 C 226.265625 347.621094 225.515625 347.9375 225.515625 347.9375 C 224.140625 348.824219 222.71875 349.597656 222.632812 353.304688 C 222.632812 356.777344 225.265625 360.355469 228.117188 363.128906 C 230.972656 366.257812 234.890625 369.398438 238.679688 369.394531 C 242.386719 369.308594 243.15625 367.886719 244.042969 366.511719 C 244.042969 366.511719 244.359375 365.761719 243.792969 365.109375 C 243.222656 364.457031 240.355469 361.589844 240.355469 361.589844 C 240.355469 361.589844 239.507812 360.570312 238.566406 361.273438 C 237.863281 361.796875 236.605469 362.964844 236.300781 363.246094 C 236.300781 363.246094 234.195312 362.125 232.949219 361.101562 Z M 232.949219 361.101562 " fill-opacity="1" fill-rule="nonzero"/><g clip-path="url(#5138adf2eb)"><path fill="#ffffff" d="M 233.441406 380.484375 C 221.453125 380.484375 211.699219 370.730469 211.699219 358.738281 C 211.699219 346.75 221.453125 336.996094 233.441406 336.996094 C 245.433594 336.996094 255.1875 346.75 255.1875 358.738281 C 255.1875 370.730469 245.433594 380.484375 233.441406 380.484375 Z M 233.441406 339.140625 C 222.636719 339.140625 213.84375 347.933594 213.84375 358.738281 C 213.84375 369.546875 222.636719 378.339844 233.441406 378.339844 C 244.25 378.339844 253.042969 369.546875 253.042969 358.738281 C 253.042969 347.933594 244.25 339.140625 233.441406 339.140625 Z M 233.441406 339.140625 " fill-opacity="1" fill-rule="nonzero"/></g><path stroke-linecap="butt" transform="matrix(3.746477, 0, 0, 3.75, 328.300507, 501.335155)" fill="none" stroke-linejoin="miter" d="M 3.750472 0.000208726 L 39.491342 0.000208726 " stroke="#4773ad" stroke-width="1" stroke-opacity="1" stroke-miterlimit="4"/><path stroke-linecap="butt" transform="matrix(3.746477, 0, 0, 3.75, 328.300507, 501.335155)" fill-opacity="1" fill="#4773ad" fill-rule="nonzero" stroke-linejoin="miter" d="M 3.500237 0.000208726 C 3.500237 0.0981254 3.490853 0.196042 3.471043 0.292917 C 3.452275 0.38875 3.423081 0.483542 3.385546 0.574167 C 3.34801 0.664792 3.302134 0.75125 3.246874 0.833542 C 3.192656 0.914792 3.130097 0.990834 3.06024 1.060625 C 2.991425 1.130417 2.915312 1.192917 2.832943 1.247084 C 2.751617 1.302292 2.665077 1.348125 2.574367 1.385625 C 2.482614 1.423125 2.388776 1.452292 2.292852 1.471042 C 2.195886 1.490834 2.09892 1.500209 1.999869 1.500209 C 1.90186 1.500209 1.803851 1.490834 1.706885 1.471042 C 1.610962 1.452292 1.517124 1.423125 1.426413 1.385625 C 1.334661 1.348125 1.248121 1.302292 1.166794 1.247084 C 1.084425 1.192917 1.009355 1.130417 0.939498 1.060625 C 0.86964 0.990834 0.807082 0.914792 0.752864 0.833542 C 0.697604 0.75125 0.651727 0.664792 0.614192 0.574167 C 0.576657 0.483542 0.548505 0.38875 0.528695 0.292917 C 0.509927 0.196042 0.499501 0.0981254 0.499501 0.000208726 C 0.499501 -0.0987496 0.509927 -0.195625 0.528695 -0.2925 C 0.548505 -0.389375 0.576657 -0.483125 0.614192 -0.57375 C 0.651727 -0.665416 0.697604 -0.751875 0.752864 -0.833125 C 0.807082 -0.915416 0.86964 -0.991458 0.939498 -1.060208 C 1.009355 -1.13 1.084425 -1.1925 1.166794 -1.247708 C 1.248121 -1.301875 1.334661 -1.347708 1.426413 -1.38625 C 1.517124 -1.42375 1.610962 -1.451875 1.706885 -1.471666 C 1.803851 -1.490416 1.90186 -1.499791 1.999869 -1.499791 C 2.09892 -1.499791 2.195886 -1.490416 2.292852 -1.471666 C 2.388776 -1.451875 2.482614 -1.42375 2.574367 -1.38625 C 2.665077 -1.347708 2.751617 -1.301875 2.832943 -1.247708 C 2.915312 -1.1925 2.991425 -1.13 3.06024 -1.060208 C 3.130097 -0.991458 3.192656 -0.915416 3.246874 -0.833125 C 3.302134 -0.751875 3.34801 -0.665416 3.385546 -0.57375 C 3.423081 -0.483125 3.452275 -0.389375 3.471043 -0.2925 C 3.490853 -0.195625 3.500237 -0.0987496 3.500237 0.000208726 Z M 3.500237 0.000208726 " stroke="#4773ad" stroke-width="1" stroke-opacity="1" stroke-miterlimit="4"/><path stroke-linecap="butt" transform="matrix(3.746477, 0, 0, 3.75, 490.304502, 501.335155)" fill-opacity="1" fill="#4773ad" fill-rule="nonzero" stroke-linejoin="miter" d="M -0.500421 0.000208726 C -0.500421 0.0981254 -0.509804 0.196042 -0.528572 0.292917 C -0.548382 0.38875 -0.576534 0.483542 -0.614069 0.574167 C -0.651604 0.664792 -0.698523 0.75125 -0.752741 0.833542 C -0.808001 0.914792 -0.869517 0.990834 -0.939375 1.060625 C -1.009232 1.130417 -1.084302 1.192917 -1.166672 1.247084 C -1.249041 1.302292 -1.334538 1.348125 -1.42629 1.385625 C -1.517001 1.423125 -1.610839 1.452292 -1.707805 1.471042 C -1.803728 1.490834 -1.901737 1.500209 -1.999746 1.500209 C -2.098797 1.500209 -2.195763 1.490834 -2.292729 1.471042 C -2.389696 1.452292 -2.483534 1.423125 -2.574244 1.385625 C -2.664954 1.348125 -2.751494 1.302292 -2.833863 1.247084 C -2.915189 1.192917 -2.991302 1.130417 -3.06116 1.060625 C -3.129974 0.990834 -3.192533 0.914792 -3.246751 0.833542 C -3.302011 0.75125 -3.347887 0.664792 -3.385423 0.574167 C -3.424001 0.483542 -3.452152 0.38875 -3.47092 0.292917 C -3.49073 0.196042 -3.500114 0.0981254 -3.500114 0.000208726 C -3.500114 -0.0987496 -3.49073 -0.195625 -3.47092 -0.2925 C -3.452152 -0.389375 -3.424001 -0.483125 -3.385423 -0.57375 C -3.347887 -0.665416 -3.302011 -0.751875 -3.246751 -0.833125 C -3.192533 -0.915416 -3.129974 -0.991458 -3.06116 -1.060208 C -2.991302 -1.13 -2.915189 -1.1925 -2.833863 -1.247708 C -2.751494 -1.301875 -2.664954 -1.347708 -2.574244 -1.38625 C -2.483534 -1.42375 -2.389696 -1.451875 -2.292729 -1.471666 C -2.195763 -1.490416 -2.098797 -1.499791 -1.999746 -1.499791 C -1.901737 -1.499791 -1.803728 -1.490416 -1.707805 -1.471666 C -1.610839 -1.451875 -1.517001 -1.42375 -1.42629 -1.38625 C -1.334538 -1.347708 -1.249041 -1.301875 -1.166672 -1.247708 C -1.084302 -1.1925 -1.009232 -1.13 -0.939375 -1.060208 C -0.869517 -0.991458 -0.808001 -0.915416 -0.752741 -0.833125 C -0.698523 -0.751875 -0.651604 -0.665416 -0.614069 -0.57375 C -0.576534 -0.483125 -0.548382 -0.389375 -0.528572 -0.2925 C -0.509804 -0.195625 -0.500421 -0.0987496 -0.500421 0.000208726 Z M -0.500421 0.000208726 " stroke="#4773ad" stroke-width="1" stroke-opacity="1" stroke-miterlimit="4"/><g clip-path="url(#c9aaf4b2f1)"><path fill="#4773ad" d="M 259.410156 528.914062 L 259.410156 476.617188 C 259.410156 470.359375 264.511719 465.265625 270.773438 465.265625 L 336.546875 465.265625 C 342.808594 465.265625 347.910156 470.359375 347.910156 476.617188 L 347.910156 528.914062 C 347.910156 535.167969 342.808594 540.265625 336.546875 540.265625 L 270.773438 540.265625 C 264.511719 540.265625 259.410156 535.167969 259.410156 528.914062 " fill-opacity="1" fill-rule="nonzero"/></g><g clip-path="url(#f45c576a84)"><path fill="#ffffff" d="M 309.289062 476.574219 L 308.492188 481.46875 C 307.859375 481.671875 307.25 481.921875 306.664062 482.21875 L 302.625 479.335938 L 298.5 483.460938 L 301.335938 487.519531 C 301.03125 488.109375 300.773438 488.726562 300.566406 489.371094 L 295.695312 490.179688 L 295.695312 496.015625 L 300.558594 496.878906 C 300.765625 497.519531 301.023438 498.136719 301.328125 498.726562 L 298.453125 502.75 L 302.578125 506.878906 L 306.640625 504.035156 C 307.230469 504.335938 307.84375 504.589844 308.480469 504.792969 L 309.292969 509.6875 L 315.128906 509.6875 L 316 504.78125 C 316.636719 504.574219 317.246094 504.316406 317.832031 504.015625 L 321.914062 506.878906 L 326.046875 502.75 L 323.128906 498.691406 C 323.421875 498.113281 323.671875 497.511719 323.875 496.882812 L 328.800781 496.019531 L 328.800781 490.179688 L 323.871094 489.371094 C 323.667969 488.742188 323.417969 488.140625 323.121094 487.558594 L 325.992188 483.46875 L 321.863281 479.335938 L 317.816406 482.242188 C 317.234375 481.941406 316.625 481.6875 315.992188 481.484375 L 315.132812 476.574219 Z M 298.078125 476.914062 C 298.007812 476.914062 297.941406 476.917969 297.875 476.929688 C 292.226562 477.804688 288.359375 480.351562 285.90625 483.804688 C 283.511719 487.171875 282.457031 491.324219 281.96875 495.589844 L 277.179688 503.84375 L 277.175781 503.855469 C 276.359375 505.320312 276.878906 507.234375 278.359375 508.058594 L 278.382812 508.070312 L 281.996094 509.878906 L 283.160156 518.402344 L 283.164062 518.414062 C 283.667969 521.585938 286.449219 524.003906 289.667969 523.871094 L 293.328125 523.878906 L 293.328125 528.605469 L 294.3125 528.605469 C 294.441406 528.628906 294.570312 528.628906 294.699219 528.605469 L 295.695312 528.605469 L 295.695312 521.511719 L 289.597656 521.507812 L 289.574219 521.507812 C 287.605469 521.585938 285.820312 520.058594 285.496094 518.042969 L 285.5 518.070312 L 284.171875 508.320312 L 279.507812 505.992188 C 279.121094 505.773438 279.019531 505.40625 279.242188 505.003906 L 284.230469 496.402344 L 284.257812 496.152344 C 284.707031 491.996094 285.726562 488.136719 287.835938 485.175781 C 289.941406 482.214844 293.101562 480.0625 298.242188 479.265625 C 298.546875 479.222656 298.796875 479.082031 298.992188 478.839844 C 299.1875 478.597656 299.277344 478.324219 299.253906 478.011719 C 299.230469 477.703125 299.109375 477.441406 298.882812 477.230469 C 298.65625 477.019531 298.386719 476.914062 298.078125 476.914062 Z M 311.300781 478.941406 L 313.144531 478.941406 L 313.902344 483.269531 L 314.648438 483.457031 C 315.625 483.699219 316.539062 484.085938 317.375 484.589844 L 318.042969 484.996094 L 321.609375 482.429688 L 322.914062 483.734375 L 320.378906 487.351562 L 320.773438 488.007812 C 321.273438 488.84375 321.65625 489.75 321.898438 490.722656 L 322.089844 491.476562 L 326.4375 492.1875 L 326.4375 494.03125 L 322.082031 494.796875 L 321.898438 495.542969 C 321.660156 496.511719 321.277344 497.421875 320.777344 498.253906 L 320.375 498.921875 L 322.953125 502.5 L 321.648438 503.804688 L 318.035156 501.269531 L 317.375 501.671875 C 316.546875 502.175781 315.625 502.5625 314.652344 502.808594 L 313.914062 502.996094 L 313.148438 507.324219 L 311.296875 507.324219 L 310.578125 503.007812 L 309.824219 502.820312 C 308.847656 502.578125 307.929688 502.195312 307.089844 501.691406 L 306.433594 501.292969 L 302.847656 503.804688 L 301.539062 502.496094 L 304.078125 498.945312 L 303.675781 498.28125 C 303.164062 497.4375 302.777344 496.519531 302.535156 495.539062 L 302.351562 494.792969 L 298.058594 494.035156 L 298.058594 492.183594 L 302.351562 491.46875 L 302.539062 490.714844 C 302.785156 489.734375 303.171875 488.8125 303.679688 487.96875 L 304.078125 487.3125 L 301.574219 483.734375 L 302.882812 482.425781 L 306.4375 484.964844 L 307.105469 484.566406 C 307.941406 484.066406 308.859375 483.683594 309.835938 483.445312 L 310.597656 483.257812 Z M 312.246094 487.21875 C 308.996094 487.21875 306.335938 489.878906 306.335938 493.132812 C 306.335938 496.382812 308.996094 499.042969 312.246094 499.042969 C 315.5 499.042969 318.160156 496.382812 318.160156 493.132812 C 318.160156 489.878906 315.5 487.21875 312.246094 487.21875 Z M 312.246094 489.585938 C 314.21875 489.585938 315.792969 491.160156 315.792969 493.132812 C 315.792969 495.105469 314.21875 496.679688 312.246094 496.679688 C 310.273438 496.679688 308.699219 495.105469 308.699219 493.132812 C 308.699219 491.160156 310.273438 489.585938 312.246094 489.585938 Z M 319.347656 509.25 C 318.929688 509.253906 318.605469 509.425781 318.375 509.773438 C 316.078125 513.050781 314.628906 516.914062 314.628906 521.03125 L 314.628906 526.242188 L 314.613281 526.242188 L 314.613281 528.605469 L 315.613281 528.605469 C 315.742188 528.628906 315.871094 528.628906 316 528.605469 L 316.976562 528.605469 L 316.976562 527.648438 C 316.992188 527.574219 316.996094 527.5 316.996094 527.425781 L 316.996094 521.03125 C 316.996094 517.46875 318.246094 514.074219 320.308594 511.128906 C 320.441406 510.945312 320.511719 510.746094 320.53125 510.523438 C 320.546875 510.300781 320.503906 510.09375 320.402344 509.894531 C 320.300781 509.695312 320.15625 509.539062 319.964844 509.425781 C 319.777344 509.308594 319.570312 509.25 319.347656 509.25 Z M 319.347656 509.25 " fill-opacity="1" fill-rule="nonzero"/></g><g clip-path="url(#2db2b297ee)"><g clip-path="url(#9f1e45f5a7)"><path stroke-linecap="butt" transform="matrix(0.750764, 0, 0, 0.74963, 489.983598, 323.168557)" fill="none" stroke-linejoin="miter" d="M 47.525528 -0.000785176 L 259.148442 -0.000785176 C 285.397737 -0.000785176 306.672935 21.275332 306.672935 47.52265 C 306.672935 73.769969 285.397737 95.046086 259.148442 95.046086 L 47.525528 95.046086 C 21.276233 95.046086 0.00103552 73.769969 0.00103552 47.52265 C 0.00103552 21.275332 21.276233 -0.000785176 47.525528 -0.000785176 " stroke="#e93c68" stroke-width="8" stroke-opacity="1" stroke-miterlimit="4"/></g></g><g clip-path="url(#776b853a91)"><g clip-path="url(#a3da57dfda)"><path stroke-linecap="butt" transform="matrix(0.749885, 0, 0, 0.751823, 490.46271, 436.237798)" fill="none" stroke-linejoin="miter" d="M 50.995035 0.0006427 L 255.036718 0.0006427 C 283.197283 0.0006427 306.028906 22.830574 306.028906 50.996495 L 306.028906 122.582929 C 306.028906 150.74885 283.197283 173.578782 255.036718 173.578782 L 50.995035 173.578782 C 22.82926 173.578782 -0.00236309 150.74885 -0.00236309 122.582929 L -0.00236309 50.996495 C -0.00236309 22.830574 22.82926 0.0006427 50.995035 0.0006427 " stroke="#4773ad" stroke-width="8" stroke-opacity="1" stroke-miterlimit="4"/></g></g><g clip-path="url(#35487b47fe)"><g clip-path="url(#b4ffac75bc)"><path stroke-linecap="butt" transform="matrix(0.751344, 0, 0, 0.752413, 510.628565, 568.243527)" fill="none" stroke-linejoin="miter" d="M 50.997597 -0.00178082 L 79.76375 -0.00178082 C 107.926817 -0.00178082 130.760893 22.830996 130.760893 50.995575 L 130.760893 99.521716 C 130.760893 127.686294 107.926817 150.513879 79.76375 150.513879 L 50.997597 150.513879 C 22.829332 150.513879 0.000454807 127.686294 0.000454807 99.521716 L 0.000454807 50.995575 C 0.000454807 22.830996 22.829332 -0.00178082 50.997597 -0.00178082 " stroke="#e2853f" stroke-width="8" stroke-opacity="1" stroke-miterlimit="4"/></g></g><path stroke-linecap="butt" transform="matrix(3.751244, 0.0112588, -0.011255, 3.749983, 57.775117, 623.332309)" fill="none" stroke-linejoin="miter" d="M 3.750391 0.000124422 L 117.01072 -0.00033801 " stroke="#e2853f" stroke-width="1" stroke-opacity="1" stroke-miterlimit="4"/><path stroke-linecap="butt" transform="matrix(3.751244, 0.0112588, -0.011255, 3.749983, 57.775117, 623.332309)" fill-opacity="1" fill="#e2853f" fill-rule="nonzero" stroke-linejoin="miter" d="M 3.500473 -0.000166908 C 3.499729 0.0987941 3.490648 0.195697 3.471153 0.292631 C 3.451659 0.389565 3.423825 0.483399 3.385568 0.574139 C 3.348353 0.664876 3.301754 0.751475 3.246808 0.83289 C 3.192906 0.915344 3.130653 0.990531 3.061094 1.060532 C 2.991536 1.130533 2.915704 1.192219 2.833606 1.247674 C 2.751505 1.302088 2.665214 1.34818 2.573691 1.385955 C 2.483209 1.423727 2.389576 1.452133 2.29279 1.471174 C 2.196004 1.490215 2.098149 1.499883 2.000266 1.500177 C 1.901341 1.500474 1.804468 1.490348 1.707567 1.470848 C 1.610668 1.452388 1.516863 1.423503 1.426156 1.386275 C 1.335446 1.348006 1.24888 1.302432 1.166451 1.247471 C 1.085063 1.192507 1.00886 1.130236 0.938882 1.060654 C 0.869946 0.991069 0.807239 0.915215 0.752844 0.833086 C 0.698449 0.750957 0.652372 0.664637 0.614613 0.574125 C 0.576851 0.482571 0.548454 0.388906 0.528382 0.293133 C 0.509347 0.196314 0.499682 0.0984263 0.500429 0.000506907 C 0.500132 -0.098451 0.50921 -0.196395 0.528708 -0.292288 C 0.548202 -0.389222 0.576036 -0.483056 0.614293 -0.573796 C 0.651508 -0.664533 0.698108 -0.751132 0.75305 -0.833589 C 0.807996 -0.915004 0.869205 -0.99123 0.939808 -1.060192 C 1.009367 -1.130193 1.085195 -1.192921 1.166255 -1.247331 C 1.248356 -1.301744 1.334647 -1.347837 1.42617 -1.385612 C 1.516652 -1.423384 1.610285 -1.45179 1.707071 -1.470831 C 1.803857 -1.489871 1.901712 -1.49954 1.999595 -1.499834 C 2.09852 -1.500131 2.196435 -1.490008 2.292292 -1.471546 C 2.389193 -1.452045 2.482998 -1.42316 2.573705 -1.385932 C 2.665456 -1.347666 2.750981 -1.302089 2.83341 -1.247128 C 2.914798 -1.192164 2.991002 -1.129892 3.060979 -1.060311 C 3.129915 -0.990725 3.192622 -0.914872 3.247014 -0.833785 C 3.301409 -0.751656 3.348527 -0.665339 3.38629 -0.573785 C 3.423007 -0.48327 3.452445 -0.389608 3.47148 -0.29279 C 3.490514 -0.195971 3.50018 -0.0980831 3.500473 -0.000166908 Z M 3.500473 -0.000166908 " stroke="#e2853f" stroke-width="1" stroke-opacity="1" stroke-miterlimit="4"/><path stroke-linecap="butt" transform="matrix(3.751244, 0.0112588, -0.011255, 3.749983, 510.778973, 624.691933)" fill-opacity="1" fill="#e2853f" fill-rule="nonzero" stroke-linejoin="miter" d="M -0.500267 0.000319954 C -0.499974 0.0982362 -0.510093 0.196184 -0.528546 0.293115 C -0.548043 0.389007 -0.576919 0.482844 -0.614134 0.573581 C -0.652388 0.665363 -0.697946 0.751959 -0.752892 0.833374 C -0.807837 0.914789 -0.870088 0.991018 -0.939646 1.061019 C -1.009208 1.129978 -1.085036 1.192706 -1.167137 1.247119 C -1.248197 1.30153 -1.334488 1.347622 -1.426011 1.385397 C -1.516493 1.423169 -1.611168 1.451578 -1.706909 1.471658 C -1.803695 1.490698 -1.90155 1.500367 -2.000478 1.499623 C -2.098361 1.499916 -2.196273 1.490835 -2.292133 1.471331 C -2.389034 1.451831 -2.482837 1.423987 -2.573546 1.385718 C -2.665294 1.348493 -2.751864 1.301878 -2.833252 1.246913 C -2.915678 1.192994 -2.99084 1.130719 -3.060817 1.061137 C -3.130797 0.990514 -3.19246 0.915699 -3.246855 0.83357 C -3.302291 0.751444 -3.348369 0.665124 -3.386131 0.57357 C -3.42389 0.483058 -3.452287 0.389393 -3.471321 0.292575 C -3.490355 0.195756 -3.500018 0.09891 -3.500315 -0.000047893 C -3.49957 -0.0990089 -3.490489 -0.195912 -3.470995 -0.292846 C -3.451497 -0.388738 -3.423663 -0.482572 -3.38541 -0.574354 C -3.348194 -0.665091 -3.301595 -0.75169 -3.24769 -0.833102 C -3.192748 -0.915559 -3.130494 -0.990746 -3.060936 -1.060747 C -2.991377 -1.130748 -2.915546 -1.192434 -2.833445 -1.246847 C -2.751347 -1.302302 -2.665055 -1.348395 -2.573532 -1.38617 C -2.483051 -1.423942 -2.389417 -1.452348 -2.292631 -1.471389 C -2.195846 -1.490429 -2.09799 -1.500098 -2.000107 -1.500392 C -1.901179 -1.499647 -1.804309 -1.490563 -1.707408 -1.471062 C -1.610506 -1.451562 -1.516704 -1.423718 -1.425994 -1.385449 C -1.335288 -1.348221 -1.248718 -1.301605 -1.166292 -1.247686 C -1.084904 -1.192722 -1.008701 -1.13045 -0.939765 -1.060865 C -0.869788 -0.991283 -0.807081 -0.91543 -0.752686 -0.833301 C -0.69829 -0.751172 -0.652213 -0.664852 -0.614454 -0.57434 C -0.576692 -0.482786 -0.548295 -0.389121 -0.529261 -0.292303 C -0.509189 -0.196529 -0.499523 -0.0986411 -0.500267 0.000319954 Z M -0.500267 0.000319954 " stroke="#e2853f" stroke-width="1" stroke-opacity="1" stroke-miterlimit="4"/><g clip-path="url(#ca6808a602)"><path fill="#e2853f" d="M 57.472656 649.578125 L 57.472656 597.28125 C 57.472656 591.027344 62.570312 585.929688 68.832031 585.929688 L 134.609375 585.929688 C 140.867188 585.929688 145.96875 591.027344 145.96875 597.28125 L 145.96875 649.578125 C 145.96875 655.832031 140.867188 660.929688 134.609375 660.929688 L 68.832031 660.929688 C 62.570312 660.929688 57.472656 655.832031 57.472656 649.578125 " fill-opacity="1" fill-rule="nonzero"/></g><g clip-path="url(#dad687a333)"><path fill="#ffffff" d="M 76.347656 617.480469 C 79.101562 617.480469 81.378906 615.414062 81.378906 612.867188 L 81.378906 600.464844 L 92.054688 599.710938 L 92.054688 607.285156 C 91.714844 607.21875 91.300781 607.148438 90.890625 607.148438 C 88.132812 607.148438 85.855469 609.214844 85.855469 611.765625 C 85.855469 614.3125 88.132812 616.378906 90.890625 616.378906 C 93.640625 616.378906 95.917969 614.3125 95.917969 611.765625 L 95.917969 593.851562 C 95.917969 593.300781 95.707031 592.820312 95.296875 592.40625 C 94.882812 591.996094 94.402344 591.855469 93.851562 591.925781 L 79.242188 593.027344 C 78.277344 593.097656 77.445312 593.921875 77.445312 594.957031 L 77.445312 608.457031 C 77.105469 608.386719 76.691406 608.316406 76.28125 608.316406 C 73.523438 608.316406 71.246094 610.382812 71.246094 612.9375 C 71.316406 615.414062 73.589844 617.480469 76.347656 617.480469 " fill-opacity="1" fill-rule="nonzero"/></g><path fill="#ffffff" d="M 98.195312 635.664062 C 97.710938 635.664062 97.230469 635.804688 96.8125 636.007812 C 96.261719 636.285156 95.644531 636.496094 95.023438 636.496094 L 94.542969 636.496094 L 94.542969 629.949219 C 94.542969 628.984375 93.78125 628.226562 92.816406 628.226562 L 87.300781 628.226562 L 87.300781 627.882812 C 87.300781 627.191406 87.507812 626.578125 87.78125 625.957031 C 87.992188 625.605469 88.0625 625.195312 88.0625 624.78125 C 88.132812 623.128906 86.75 621.683594 85.167969 621.613281 C 83.445312 621.542969 82.0625 622.921875 82.0625 624.644531 C 82.0625 625.125 82.203125 625.605469 82.410156 626.023438 C 82.683594 626.578125 82.894531 627.191406 82.894531 627.8125 L 82.894531 628.226562 L 77.382812 628.226562 C 76.414062 628.226562 75.660156 628.984375 75.660156 629.949219 L 75.660156 636.496094 L 75.308594 636.496094 C 74.625 636.496094 74.003906 636.285156 73.382812 636.007812 C 73.039062 635.804688 72.628906 635.734375 72.210938 635.734375 C 70.554688 635.664062 69.109375 636.976562 69.039062 638.625 C 68.96875 640.351562 70.351562 641.726562 72.074219 641.726562 C 72.558594 641.726562 73.039062 641.59375 73.453125 641.382812 C 74.003906 641.109375 74.625 640.902344 75.246094 640.902344 L 75.726562 640.902344 L 75.726562 647.449219 C 75.726562 648.410156 76.484375 649.167969 77.445312 649.167969 L 82.410156 649.167969 C 82.683594 649.167969 82.964844 648.894531 82.964844 648.613281 C 82.964844 648.0625 82.824219 647.449219 82.550781 646.960938 C 82.339844 646.546875 82.203125 646.066406 82.203125 645.515625 C 82.203125 643.859375 83.585938 642.484375 85.304688 642.484375 C 86.957031 642.554688 88.335938 644 88.199219 645.65625 C 88.199219 646.136719 88.0625 646.617188 87.78125 646.960938 C 87.371094 647.511719 87.238281 648.0625 87.238281 648.613281 C 87.238281 648.894531 87.507812 649.167969 87.78125 649.167969 L 92.746094 649.167969 C 93.710938 649.167969 94.472656 648.410156 94.472656 647.449219 L 94.472656 640.902344 L 94.8125 640.902344 C 95.503906 640.902344 96.125 641.109375 96.742188 641.382812 C 97.089844 641.59375 97.503906 641.660156 97.914062 641.660156 C 99.570312 641.726562 101.015625 640.351562 101.085938 638.765625 C 101.226562 637.042969 99.84375 635.664062 98.195312 635.664062 " fill-opacity="1" fill-rule="nonzero"/><g clip-path="url(#83ee051055)"><path fill="#ffffff" d="M 109.082031 614.933594 C 109.632812 615.484375 110.527344 615.6875 111.28125 615.484375 L 113.765625 618.855469 C 113.898438 619.066406 114.109375 619.136719 114.320312 619.136719 L 114.386719 619.136719 C 114.589844 619.136719 114.800781 619.066406 114.941406 618.925781 L 115.554688 618.234375 C 115.972656 617.824219 116.175781 617.140625 116.039062 616.519531 L 115.074219 612.519531 L 120.589844 607.835938 L 124.03125 617.894531 C 124.101562 618.171875 124.304688 618.304688 124.585938 618.375 C 124.855469 618.445312 125.136719 618.375 125.277344 618.171875 L 127.480469 615.964844 C 128.027344 615.414062 128.304688 614.585938 128.167969 613.832031 L 126.035156 602.738281 L 130.101562 598.675781 C 131.40625 597.363281 132.097656 595.578125 132.097656 593.714844 C 132.097656 592.75 131.335938 591.996094 130.375 591.996094 C 128.515625 591.996094 126.722656 592.679688 125.410156 593.992188 L 121.351562 598.054688 L 110.183594 595.851562 C 109.421875 595.714844 108.597656 595.917969 108.046875 596.539062 L 105.839844 598.746094 C 105.632812 598.949219 105.566406 599.226562 105.632812 599.429688 C 105.703125 599.710938 105.910156 599.917969 106.121094 599.980469 L 116.175781 603.429688 L 111.492188 608.9375 L 107.496094 607.972656 C 106.875 607.835938 106.253906 607.972656 105.769531 608.457031 L 105.148438 609.148438 C 105.015625 609.285156 104.945312 609.488281 104.945312 609.769531 C 104.945312 609.972656 105.082031 610.179688 105.21875 610.320312 L 108.597656 612.796875 C 108.257812 613.488281 108.460938 614.3125 109.082031 614.933594 " fill-opacity="1" fill-rule="nonzero"/></g><g clip-path="url(#7892615ff1)"><path fill="#ffffff" d="M 121.554688 649.097656 C 120.652344 650.476562 121.554688 652.265625 119.96875 654.058594 C 119.625 654.402344 119.828125 654.882812 120.3125 654.882812 C 123.34375 654.953125 125.207031 653.507812 126.167969 652.195312 C 127.0625 650.960938 126.722656 649.234375 125.480469 648.34375 C 124.171875 647.511719 122.449219 647.859375 121.554688 649.097656 " fill-opacity="1" fill-rule="nonzero"/></g><path fill="#ffffff" d="M 118.109375 642.695312 C 116.246094 642.695312 114.660156 641.726562 113.695312 640.148438 C 113.417969 639.660156 113.558594 639.042969 114.039062 638.695312 C 114.523438 638.421875 115.144531 638.5625 115.484375 639.113281 C 116.039062 640.007812 117.007812 640.628906 118.109375 640.628906 C 119.144531 640.628906 120.175781 640.078125 120.652344 639.175781 C 120.933594 638.695312 121.554688 638.492188 122.105469 638.765625 C 122.585938 639.042969 122.789062 639.660156 122.515625 640.148438 C 121.625 641.726562 119.898438 642.695312 118.109375 642.695312 Z M 111.28125 634.289062 C 111.148438 634.152344 111.078125 633.941406 111.148438 633.808594 C 111.21875 632.910156 111.910156 631.191406 113.96875 631.191406 C 116.039062 631.191406 116.726562 632.910156 116.796875 633.808594 C 116.796875 634.011719 116.726562 634.152344 116.660156 634.289062 C 116.523438 634.421875 116.386719 634.492188 116.175781 634.492188 L 111.761719 634.492188 C 111.628906 634.492188 111.425781 634.421875 111.28125 634.289062 Z M 122.175781 631.191406 C 124.242188 631.191406 124.925781 632.910156 125.003906 633.808594 C 125.003906 634.011719 124.925781 634.152344 124.855469 634.289062 C 124.722656 634.421875 124.585938 634.492188 124.375 634.492188 L 119.96875 634.492188 C 119.757812 634.492188 119.625 634.421875 119.484375 634.289062 C 119.347656 634.152344 119.277344 633.941406 119.347656 633.808594 C 119.484375 632.910156 120.175781 631.191406 122.175781 631.191406 Z M 122.238281 645.996094 L 122.789062 645.101562 L 128.027344 636.425781 C 128.304688 636.007812 128.578125 635.664062 128.929688 635.324219 L 128.929688 625.816406 C 128.929688 625.539062 128.789062 625.265625 128.578125 625.054688 C 128.375 624.851562 128.027344 624.78125 127.753906 624.78125 L 127.546875 624.78125 C 121.28125 625.539062 114.871094 625.539062 108.53125 624.78125 L 108.320312 624.78125 C 108.046875 624.714844 107.703125 624.851562 107.496094 625.054688 C 107.285156 625.265625 107.152344 625.539062 107.152344 625.816406 L 107.152344 636.699219 C 107.152344 638.625 107.496094 640.488281 108.1875 642.214844 C 109.839844 646.277344 113.628906 648.894531 118.039062 648.894531 C 118.453125 648.894531 118.796875 648.824219 119.214844 648.824219 C 119.347656 648.480469 119.484375 648.203125 119.695312 647.859375 C 120.378906 646.960938 121.28125 646.34375 122.238281 645.996094 " fill-opacity="1" fill-rule="nonzero"/><g clip-path="url(#d827281cfd)"><path fill="#ffffff" d="M 133.40625 636.769531 C 132.238281 635.945312 130.714844 636.285156 129.960938 637.527344 L 124.925781 645.863281 C 125.546875 645.996094 126.167969 646.207031 126.652344 646.546875 C 127.203125 646.898438 127.617188 647.378906 127.964844 647.859375 L 133.890625 640.210938 C 134.78125 639.113281 134.578125 637.527344 133.40625 636.769531 " fill-opacity="1" fill-rule="nonzero"/></g><g clip-path="url(#c66bde1c74)"><g clip-path="url(#d7d97a0965)"><path stroke-linecap="butt" transform="matrix(0.749757, 0, 0, 0.748229, 679.674932, 113.666441)" fill="none" stroke-linejoin="miter" d="M 50.996795 0.00204225 L 287.094 0.00204225 C 300.619208 0.00204225 313.592155 5.374106 323.157749 14.938363 C 332.718133 24.50262 338.094872 37.470751 338.094872 50.997492 L 338.094872 147.470149 C 338.094872 160.996891 332.718133 173.970242 323.157749 183.534499 C 313.592155 193.093535 300.619208 198.47082 287.094 198.47082 L 50.996795 198.47082 C 37.471587 198.47082 24.49864 193.093535 14.938256 183.534499 C 5.372662 173.970242 0.00113266 160.996891 0.00113266 147.470149 L 0.00113266 50.997492 C 0.00113266 37.470751 5.372662 24.50262 14.938256 14.938363 C 24.49864 5.374106 37.471587 0.00204225 50.996795 0.00204225 " stroke="#faca49" stroke-width="8" stroke-opacity="1" stroke-miterlimit="4"/></g></g><path stroke-linecap="butt" transform="matrix(3.746213, 0.0501647, -0.0502109, 3.749664, 933.255007, 188.09733)" fill="none" stroke-linejoin="miter" d="M 3.750368 -0.0000825275 L 84.533008 0.000518432 " stroke="#faca49" stroke-width="1" stroke-opacity="1" stroke-miterlimit="4"/><path stroke-linecap="butt" transform="matrix(3.746213, 0.0501647, -0.0502109, 3.749664, 933.255007, 188.09733)" fill-opacity="1" fill="#faca49" fill-rule="nonzero" stroke-linejoin="miter" d="M 3.500118 0.000140145 C 3.500388 0.098062 3.490233 0.196123 3.470666 0.292227 C 3.452156 0.389358 3.423179 0.483504 3.385806 0.573596 C 3.348447 0.664729 3.301649 0.751821 3.247484 0.833803 C 3.192262 0.914757 3.130715 0.990587 3.060744 1.06028 C 2.990774 1.129972 2.915492 1.192443 2.833858 1.247706 C 2.751168 1.301942 2.665238 1.347888 2.573983 1.38557 C 2.482729 1.423253 2.389264 1.451589 2.29256 1.471634 C 2.195842 1.490638 2.098998 1.500268 1.999929 1.49951 C 1.901917 1.499779 1.803779 1.490675 1.707587 1.471126 C 1.610352 1.451592 1.517176 1.423669 1.425945 1.385303 C 1.334728 1.347978 1.248612 1.302251 1.166541 1.247094 C 1.084484 1.192978 1.00857 1.130447 0.939856 1.060526 C 0.870099 0.99062 0.807571 0.915408 0.753299 0.833835 C 0.69797 0.751234 0.651982 0.665383 0.614265 0.574213 C 0.576548 0.483043 0.548186 0.389664 0.529164 0.293035 C 0.509101 0.196419 0.500491 0.0986091 0.500207 -0.000354351 C 0.499937 -0.0982762 0.510093 -0.196338 0.528616 -0.292427 C 0.548169 -0.389573 0.576117 -0.482663 0.614519 -0.57381 C 0.651878 -0.664943 0.697647 -0.75098 0.752855 -0.832975 C 0.807021 -0.914957 0.86961 -0.990801 0.939581 -1.060494 C 1.008509 -1.130172 1.084833 -1.192657 1.166481 -1.246879 C 1.248115 -1.302143 1.335088 -1.348102 1.426342 -1.385784 C 1.516554 -1.423453 1.611061 -1.451803 1.707779 -1.470807 C 1.803441 -1.490838 1.901328 -1.500482 2.000396 -1.499724 C 2.098408 -1.499993 2.196546 -1.490889 2.292738 -1.47134 C 2.38893 -1.451792 2.483149 -1.423883 2.57438 -1.385517 C 2.664554 -1.348178 2.751727 -1.301424 2.833784 -1.247308 C 2.914813 -1.192137 2.990713 -1.130647 3.06047 -1.06074 C 3.130226 -0.990834 3.192755 -0.915622 3.247041 -0.833007 C 3.302355 -0.751448 3.348357 -0.664556 3.38606 -0.574427 C 3.423777 -0.483257 3.452153 -0.388836 3.471175 -0.292207 C 3.490196 -0.195578 3.499835 -0.0988233 3.500118 0.000140145 Z M 3.500118 0.000140145 " stroke="#faca49" stroke-width="1" stroke-opacity="1" stroke-miterlimit="4"/><path stroke-linecap="butt" transform="matrix(3.746213, 0.0501647, -0.0502109, 3.749664, 1263.982215, 192.526021)" fill-opacity="1" fill="#faca49" fill-rule="nonzero" stroke-linejoin="miter" d="M -0.499932 -0.000251165 C -0.499648 0.0987123 -0.509818 0.195732 -0.528328 0.292863 C -0.547894 0.388967 -0.576871 0.483113 -0.61423 0.574246 C -0.65159 0.665379 -0.698401 0.75143 -0.752567 0.833412 C -0.807775 0.915407 -0.869321 0.991238 -0.939292 1.06093 C -1.009263 1.130622 -1.084558 1.192051 -1.166192 1.247315 C -1.248883 1.301551 -1.334799 1.348538 -1.426053 1.38622 C -1.517308 1.423903 -1.610773 1.452239 -1.707491 1.471243 C -1.804209 1.490247 -1.901053 1.499877 -2.000108 1.50016 C -2.09812 1.500429 -2.196271 1.490283 -2.292463 1.470735 C -2.389684 1.452242 -2.482875 1.423278 -2.574091 1.385953 C -2.665308 1.348628 -2.751438 1.30186 -2.83351 1.246703 C -2.915567 1.192587 -2.991481 1.130055 -3.060195 1.060135 C -3.129937 0.99127 -3.19248 0.915016 -3.246752 0.833444 C -3.302067 0.751884 -3.348068 0.664992 -3.385785 0.573822 C -3.423502 0.482651 -3.451865 0.389273 -3.470886 0.292643 C -3.489907 0.196014 -3.49956 0.0982178 -3.49983 0.000295913 C -3.500113 -0.0986675 -3.489944 -0.195687 -3.471434 -0.292819 C -3.451868 -0.388922 -3.423933 -0.483054 -3.385532 -0.574201 C -3.348172 -0.665334 -3.302403 -0.751371 -3.247195 -0.833367 C -3.191987 -0.915363 -3.130441 -0.991193 -3.06047 -1.060885 C -2.990499 -1.130577 -2.915204 -1.192007 -2.83357 -1.24727 C -2.751921 -1.301492 -2.664963 -1.348493 -2.573709 -1.386176 C -2.483497 -1.423844 -2.388989 -1.452194 -2.292271 -1.471198 C -2.195553 -1.490202 -2.098709 -1.499832 -1.999654 -1.500115 C -1.901642 -1.500385 -1.803491 -1.490238 -1.707299 -1.47069 C -1.61112 -1.452183 -1.516887 -1.423233 -1.425671 -1.385908 C -1.335496 -1.34857 -1.248324 -1.301815 -1.166266 -1.247699 C -1.085237 -1.192528 -1.009323 -1.129997 -0.939581 -1.061132 C -0.869824 -0.991225 -0.807282 -0.914972 -0.75301 -0.833399 C -0.697695 -0.75184 -0.651694 -0.664947 -0.613977 -0.573777 C -0.576259 -0.482607 -0.547897 -0.389228 -0.528876 -0.292599 C -0.509854 -0.195969 -0.500202 -0.098173 -0.499932 -0.000251165 Z M -0.499932 -0.000251165 " stroke="#faca49" stroke-width="1" stroke-opacity="1" stroke-miterlimit="4"/><g clip-path="url(#ebd2b6da93)"><path fill="#faca49" d="M 1243.53125 216.964844 L 1243.53125 164.671875 C 1243.53125 158.414062 1248.628906 153.316406 1254.890625 153.316406 L 1338.664062 153.316406 C 1344.925781 153.316406 1350.023438 158.414062 1350.023438 164.671875 L 1350.023438 216.964844 C 1350.023438 223.222656 1344.925781 228.316406 1338.664062 228.316406 L 1254.890625 228.316406 C 1248.628906 228.316406 1243.53125 223.222656 1243.53125 216.964844 " fill-opacity="1" fill-rule="nonzero"/></g><g clip-path="url(#ce2cf8c130)"><g clip-path="url(#a9ef79becb)"><path stroke-linecap="butt" transform="matrix(0.750735, 0, 0, 0.749455, 621.586199, 487.487803)" fill="none" stroke-linejoin="miter" d="M 50.996552 0.000637496 L 347.591321 0.000637496 C 361.114527 0.000637496 374.086191 5.374331 383.649736 14.938568 C 393.213281 24.502804 398.588222 37.470554 398.588222 50.996 L 398.588222 207.192753 C 398.588222 220.718199 393.213281 233.685948 383.649736 243.250185 C 374.086191 252.814422 361.114527 258.188115 347.591321 258.188115 L 50.996552 258.188115 C 37.473346 258.188115 24.501683 252.814422 14.938138 243.250185 C 5.374593 233.685948 -0.00034826 220.718199 -0.00034826 207.192753 L -0.00034826 50.996 C -0.00034826 37.470554 5.374593 24.502804 14.938138 14.938568 C 24.501683 5.374331 37.473346 0.000637496 50.996552 0.000637496 " stroke="#4cad67" stroke-width="8" stroke-opacity="1" stroke-miterlimit="4"/></g></g><path stroke-linecap="butt" transform="matrix(3.751304, -0.00533881, 0.00533694, 3.749996, 920.535608, 584.313615)" fill="none" stroke-linejoin="miter" d="M 3.749617 -0.0001673 L 41.036647 -0.000207434 " stroke="#4cad67" stroke-width="1" stroke-opacity="1" stroke-miterlimit="4"/><path stroke-linecap="butt" transform="matrix(3.751304, -0.00533881, 0.00533694, 3.749996, 920.535608, 584.313615)" fill-opacity="1" fill="#4cad67" fill-rule="nonzero" stroke-linejoin="miter" d="M 3.499703 0.00051857 C 3.499564 0.0984351 3.490053 0.196338 3.471173 0.292145 C 3.452292 0.388993 3.423002 0.482702 3.385385 0.574315 C 3.347769 0.664886 3.301828 0.751279 3.247564 0.833494 C 3.192258 0.915707 3.130714 0.990619 3.060847 1.060312 C 2.990981 1.130004 2.914877 1.192396 2.833577 1.247488 C 2.751237 1.301538 2.664742 1.34829 2.574095 1.385661 C 2.483449 1.423032 2.38969 1.452065 2.292822 1.470677 C 2.195953 1.490331 2.098057 1.499566 2.000173 1.500469 C 1.90125 1.500328 1.804422 1.490815 1.707609 1.470885 C 1.610794 1.451998 1.517117 1.423739 1.425536 1.386109 C 1.334996 1.34848 1.248635 1.301482 1.166449 1.247198 C 1.084263 1.192914 1.009378 1.130308 0.93971 1.060417 C 0.870042 0.990526 0.807671 0.915437 0.752599 0.833067 C 0.698567 0.75174 0.651831 0.665215 0.614473 0.574537 C 0.576075 0.482815 0.548094 0.389025 0.528447 0.292122 C 0.50984 0.196262 0.499566 0.0983308 0.499705 0.000414194 C 0.499846 -0.098544 0.509357 -0.196447 0.529278 -0.292252 C 0.548159 -0.389101 0.576408 -0.48281 0.614025 -0.574424 C 0.651641 -0.664995 0.697581 -0.751388 0.752887 -0.833601 C 0.807151 -0.914774 0.869737 -0.990727 0.939604 -1.060419 C 1.00947 -1.130111 1.084533 -1.192504 1.166874 -1.247596 C 1.248173 -1.301647 1.334668 -1.348399 1.426356 -1.385768 C 1.517002 -1.423139 1.610761 -1.452172 1.707629 -1.470784 C 1.803457 -1.49044 1.901352 -1.499675 2.000276 -1.499534 C 2.09816 -1.500437 2.196028 -1.489881 2.292842 -1.470993 C 2.389657 -1.452105 2.483334 -1.423847 2.573874 -1.386218 C 2.665455 -1.348587 2.751816 -1.301589 2.832961 -1.247307 C 2.915145 -1.191982 2.991073 -1.130415 3.060741 -1.060524 C 3.130409 -0.990633 3.19278 -0.915544 3.246811 -0.833176 C 3.301884 -0.751847 3.34862 -0.665322 3.385976 -0.573602 C 3.423334 -0.482924 3.452357 -0.389133 3.470963 -0.292231 C 3.490611 -0.19637 3.499844 -0.0984397 3.499703 0.00051857 Z M 3.499703 0.00051857 " stroke="#4cad67" stroke-width="1" stroke-opacity="1" stroke-miterlimit="4"/><path stroke-linecap="butt" transform="matrix(3.751304, -0.00533881, 0.00533694, 3.749996, 1088.542463, 584.074503)" fill-opacity="1" fill="#4cad67" fill-rule="nonzero" stroke-linejoin="miter" d="M -0.499692 0.000254567 C -0.499831 0.0981711 -0.509342 0.196074 -0.529265 0.292921 C -0.548144 0.388728 -0.576395 0.483479 -0.61401 0.574051 C -0.651626 0.664622 -0.697566 0.751015 -0.752873 0.833228 C -0.807137 0.915443 -0.869724 0.991396 -0.93959 1.061088 C -1.009457 1.13078 -1.084518 1.192132 -1.166859 1.247223 C -1.24816 1.302315 -1.334653 1.348026 -1.426341 1.385395 C -1.516989 1.423808 -1.610746 1.451799 -1.707615 1.471453 C -1.804483 1.490065 -1.901339 1.500344 -2.000263 1.500203 C -2.098145 1.500064 -2.196014 1.490549 -2.292829 1.471662 C -2.389642 1.451732 -2.483319 1.423474 -2.573859 1.385845 C -2.66544 1.348214 -2.751803 1.302258 -2.832946 1.246934 C -2.915132 1.19265 -2.991058 1.130042 -3.060726 1.060151 C -3.130395 0.991302 -3.192765 0.915171 -3.246798 0.833844 C -3.30187 0.751474 -3.348605 0.664949 -3.385963 0.574271 C -3.42332 0.482551 -3.452343 0.38876 -3.47095 0.2929 C -3.490597 0.195997 -3.499829 0.0980668 -3.49969 0.000150191 C -3.499549 -0.098808 -3.490039 -0.19567 -3.471158 -0.292518 C -3.452277 -0.389366 -3.424028 -0.483076 -3.385371 -0.573646 C -3.347754 -0.665259 -3.301814 -0.751652 -3.247549 -0.833867 C -3.192244 -0.915038 -3.130699 -0.990992 -3.060833 -1.060685 C -2.990966 -1.130377 -2.914862 -1.192768 -2.833563 -1.246819 C -2.751222 -1.301911 -2.664729 -1.347621 -2.574081 -1.386034 C -2.483434 -1.423405 -2.389675 -1.452438 -2.292807 -1.47105 C -2.195938 -1.490704 -2.098042 -1.499939 -2.00016 -1.4998 C -1.901236 -1.499659 -1.804409 -1.490146 -1.707594 -1.471258 C -1.61078 -1.452371 -1.517104 -1.42307 -1.425523 -1.38544 C -1.334983 -1.347811 -1.24862 -1.301855 -1.166434 -1.247571 C -1.08425 -1.192246 -1.009363 -1.130681 -0.939695 -1.06079 C -0.870027 -0.990899 -0.807657 -0.914768 -0.752584 -0.83344 C -0.698553 -0.751071 -0.651818 -0.664546 -0.61446 -0.573868 C -0.576061 -0.483188 -0.548079 -0.389398 -0.528432 -0.292495 C -0.509826 -0.195593 -0.499551 -0.0987037 -0.499692 0.000254567 Z M -0.499692 0.000254567 " stroke="#4cad67" stroke-width="1" stroke-opacity="1" stroke-miterlimit="4"/><g clip-path="url(#76fc4e3f46)"><path fill="#4cad67" d="M 1067.726562 608.511719 L 1067.726562 556.214844 C 1067.726562 549.960938 1072.828125 544.863281 1079.085938 544.863281 L 1162.859375 544.863281 C 1169.121094 544.863281 1174.222656 549.960938 1174.222656 556.214844 L 1174.222656 608.511719 C 1174.222656 614.765625 1169.121094 619.863281 1162.859375 619.863281 L 1079.085938 619.863281 C 1072.828125 619.863281 1067.726562 614.765625 1067.726562 608.511719 " fill-opacity="1" fill-rule="nonzero"/></g><g clip-path="url(#356889cf17)"><path fill="#ffffff" d="M 1100.484375 587.671875 L 1100.484375 599.671875 L 1121.484375 611.128906 L 1142.484375 599.671875 L 1142.484375 587.671875 L 1121.484375 599.128906 Z M 1121.484375 557.128906 L 1088.484375 575.128906 L 1121.484375 593.128906 L 1148.484375 578.402344 L 1148.484375 599.128906 L 1154.484375 599.128906 L 1154.484375 575.128906 Z M 1121.484375 557.128906 " fill-opacity="1" fill-rule="nonzero"/></g><g clip-path="url(#95e1654069)"><path fill="#ffffff" d="M 1299.421875 159.976562 C 1282.472656 159.976562 1268.679688 173.769531 1268.679688 190.71875 C 1268.679688 207.671875 1282.472656 221.460938 1299.421875 221.460938 C 1316.375 221.460938 1330.164062 207.671875 1330.164062 190.71875 C 1330.164062 173.769531 1316.375 159.976562 1299.421875 159.976562 Z M 1299.421875 218.429688 C 1284.144531 218.429688 1271.714844 206 1271.714844 190.71875 C 1271.714844 175.441406 1284.144531 163.011719 1299.421875 163.011719 C 1314.703125 163.011719 1327.132812 175.441406 1327.132812 190.71875 C 1327.132812 206 1314.703125 218.429688 1299.421875 218.429688 Z M 1299.421875 218.429688 " fill-opacity="1" fill-rule="nonzero"/></g><path fill="#ffffff" d="M 1302.292969 193.113281 L 1302.058594 191.875 C 1304.527344 190.589844 1306.257812 187.554688 1306.257812 184.011719 C 1306.257812 179.304688 1303.199219 175.488281 1299.421875 175.488281 C 1295.648438 175.488281 1292.585938 179.304688 1292.585938 184.011719 C 1292.585938 187.582031 1294.351562 190.636719 1296.851562 191.90625 L 1296.648438 192.992188 C 1294.867188 195.382812 1286.847656 195.378906 1286.847656 204.507812 L 1311.996094 204.507812 C 1311.996094 195.53125 1304.242188 195.382812 1302.292969 193.113281 Z M 1302.292969 193.113281 " fill-opacity="1" fill-rule="nonzero"/><g fill="#e93c68" fill-opacity="1"><g transform="translate(145.260957, 314.124408)"><g><path d="M 4.828125 0 L 1.59375 0 L 1.59375 -15.640625 L 4.828125 -15.640625 Z M 4.828125 0 "/></g></g></g><g fill="#e93c68" fill-opacity="1"><g transform="translate(152.330456, 314.124408)"><g><path d="M 14.109375 0 L 10.890625 0 L 4.625 -10.296875 L 4.625 0 L 1.390625 0 L 1.390625 -15.640625 L 4.625 -15.640625 L 10.90625 -5.328125 L 10.90625 -15.640625 L 14.109375 -15.640625 Z M 14.109375 0 "/></g></g></g><g fill="#e93c68" fill-opacity="1"><g transform="translate(168.514945, 314.124408)"><g><path d="M 10.8125 -6.390625 L 4.625 -6.390625 L 4.625 0 L 1.390625 0 L 1.390625 -15.640625 L 11.578125 -15.640625 L 11.578125 -13.03125 L 4.625 -13.03125 L 4.625 -8.984375 L 10.8125 -8.984375 Z M 10.8125 -6.390625 "/></g></g></g><g fill="#e93c68" fill-opacity="1"><g transform="translate(181.220923, 314.124408)"><g><path d="M 14.25 -7.46875 C 14.25 -5.925781 13.972656 -4.570312 13.421875 -3.40625 C 12.878906 -2.25 12.101562 -1.351562 11.09375 -0.71875 C 10.082031 -0.09375 8.921875 0.21875 7.609375 0.21875 C 6.304688 0.21875 5.144531 -0.09375 4.125 -0.71875 C 3.113281 -1.34375 2.328125 -2.234375 1.765625 -3.390625 C 1.210938 -4.546875 0.929688 -5.875 0.921875 -7.375 L 0.921875 -8.15625 C 0.921875 -9.695312 1.195312 -11.050781 1.75 -12.21875 C 2.3125 -13.382812 3.097656 -14.28125 4.109375 -14.90625 C 5.117188 -15.539062 6.273438 -15.859375 7.578125 -15.859375 C 8.890625 -15.859375 10.050781 -15.539062 11.0625 -14.90625 C 12.070312 -14.28125 12.851562 -13.382812 13.40625 -12.21875 C 13.96875 -11.050781 14.25 -9.703125 14.25 -8.171875 Z M 10.984375 -8.171875 C 10.984375 -9.816406 10.6875 -11.0625 10.09375 -11.90625 C 9.507812 -12.757812 8.671875 -13.1875 7.578125 -13.1875 C 6.503906 -13.1875 5.671875 -12.765625 5.078125 -11.921875 C 4.492188 -11.085938 4.195312 -9.859375 4.1875 -8.234375 L 4.1875 -7.46875 C 4.1875 -5.875 4.476562 -4.632812 5.0625 -3.75 C 5.65625 -2.863281 6.503906 -2.421875 7.609375 -2.421875 C 8.691406 -2.421875 9.519531 -2.84375 10.09375 -3.6875 C 10.675781 -4.539062 10.972656 -5.78125 10.984375 -7.40625 Z M 10.984375 -8.171875 "/></g></g></g><g fill="#e1e2f7" fill-opacity="1"><g transform="translate(263.309754, 444.118258)"><g><path d="M 9.5 -4.109375 C 9.5 -4.710938 9.285156 -5.175781 8.859375 -5.5 C 8.429688 -5.832031 7.65625 -6.175781 6.53125 -6.53125 C 5.414062 -6.894531 4.535156 -7.253906 3.890625 -7.609375 C 2.109375 -8.566406 1.21875 -9.859375 1.21875 -11.484375 C 1.21875 -12.328125 1.457031 -13.078125 1.9375 -13.734375 C 2.414062 -14.398438 3.097656 -14.921875 3.984375 -15.296875 C 4.878906 -15.671875 5.882812 -15.859375 7 -15.859375 C 8.113281 -15.859375 9.109375 -15.65625 9.984375 -15.25 C 10.859375 -14.84375 11.535156 -14.269531 12.015625 -13.53125 C 12.492188 -12.789062 12.734375 -11.953125 12.734375 -11.015625 L 9.515625 -11.015625 C 9.515625 -11.734375 9.289062 -12.289062 8.84375 -12.6875 C 8.394531 -13.082031 7.757812 -13.28125 6.9375 -13.28125 C 6.15625 -13.28125 5.546875 -13.113281 5.109375 -12.78125 C 4.671875 -12.457031 4.453125 -12.019531 4.453125 -11.46875 C 4.453125 -10.957031 4.707031 -10.53125 5.21875 -10.1875 C 5.726562 -9.84375 6.484375 -9.523438 7.484375 -9.234375 C 9.316406 -8.679688 10.648438 -7.992188 11.484375 -7.171875 C 12.316406 -6.359375 12.734375 -5.34375 12.734375 -4.125 C 12.734375 -2.769531 12.222656 -1.707031 11.203125 -0.9375 C 10.179688 -0.164062 8.800781 0.21875 7.0625 0.21875 C 5.863281 0.21875 4.769531 0 3.78125 -0.4375 C 2.789062 -0.882812 2.035156 -1.488281 1.515625 -2.25 C 0.992188 -3.019531 0.734375 -3.910156 0.734375 -4.921875 L 3.96875 -4.921875 C 3.96875 -3.191406 5 -2.328125 7.0625 -2.328125 C 7.832031 -2.328125 8.429688 -2.484375 8.859375 -2.796875 C 9.285156 -3.109375 9.5 -3.546875 9.5 -4.109375 Z M 9.5 -4.109375 "/></g></g></g><g fill="#e1e2f7" fill-opacity="1"><g transform="translate(277.486583, 444.118258)"><g><path d="M 6.296875 -6.28125 L 4.625 -4.46875 L 4.625 0 L 1.390625 0 L 1.390625 -15.640625 L 4.625 -15.640625 L 4.625 -8.546875 L 6.03125 -10.5 L 10.015625 -15.640625 L 13.984375 -15.640625 L 8.4375 -8.6875 L 14.140625 0 L 10.3125 0 Z M 6.296875 -6.28125 "/></g></g></g><g fill="#e1e2f7" fill-opacity="1"><g transform="translate(292.103594, 444.118258)"><g><path d="M 4.828125 0 L 1.59375 0 L 1.59375 -15.640625 L 4.828125 -15.640625 Z M 4.828125 0 "/></g></g></g><g fill="#e1e2f7" fill-opacity="1"><g transform="translate(299.173091, 444.118258)"><g><path d="M 4.625 -2.59375 L 11.46875 -2.59375 L 11.46875 0 L 1.390625 0 L 1.390625 -15.640625 L 4.625 -15.640625 Z M 4.625 -2.59375 "/></g></g></g><g fill="#e1e2f7" fill-opacity="1"><g transform="translate(311.7395, 444.118258)"><g><path d="M 4.625 -2.59375 L 11.46875 -2.59375 L 11.46875 0 L 1.390625 0 L 1.390625 -15.640625 L 4.625 -15.640625 Z M 4.625 -2.59375 "/></g></g></g><g fill="#e1e2f7" fill-opacity="1"><g transform="translate(324.305905, 444.118258)"><g><path d="M 9.5 -4.109375 C 9.5 -4.710938 9.285156 -5.175781 8.859375 -5.5 C 8.429688 -5.832031 7.65625 -6.175781 6.53125 -6.53125 C 5.414062 -6.894531 4.535156 -7.253906 3.890625 -7.609375 C 2.109375 -8.566406 1.21875 -9.859375 1.21875 -11.484375 C 1.21875 -12.328125 1.457031 -13.078125 1.9375 -13.734375 C 2.414062 -14.398438 3.097656 -14.921875 3.984375 -15.296875 C 4.878906 -15.671875 5.882812 -15.859375 7 -15.859375 C 8.113281 -15.859375 9.109375 -15.65625 9.984375 -15.25 C 10.859375 -14.84375 11.535156 -14.269531 12.015625 -13.53125 C 12.492188 -12.789062 12.734375 -11.953125 12.734375 -11.015625 L 9.515625 -11.015625 C 9.515625 -11.734375 9.289062 -12.289062 8.84375 -12.6875 C 8.394531 -13.082031 7.757812 -13.28125 6.9375 -13.28125 C 6.15625 -13.28125 5.546875 -13.113281 5.109375 -12.78125 C 4.671875 -12.457031 4.453125 -12.019531 4.453125 -11.46875 C 4.453125 -10.957031 4.707031 -10.53125 5.21875 -10.1875 C 5.726562 -9.84375 6.484375 -9.523438 7.484375 -9.234375 C 9.316406 -8.679688 10.648438 -7.992188 11.484375 -7.171875 C 12.316406 -6.359375 12.734375 -5.34375 12.734375 -4.125 C 12.734375 -2.769531 12.222656 -1.707031 11.203125 -0.9375 C 10.179688 -0.164062 8.800781 0.21875 7.0625 0.21875 C 5.863281 0.21875 4.769531 0 3.78125 -0.4375 C 2.789062 -0.882812 2.035156 -1.488281 1.515625 -2.25 C 0.992188 -3.019531 0.734375 -3.910156 0.734375 -4.921875 L 3.96875 -4.921875 C 3.96875 -3.191406 5 -2.328125 7.0625 -2.328125 C 7.832031 -2.328125 8.429688 -2.484375 8.859375 -2.796875 C 9.285156 -3.109375 9.5 -3.546875 9.5 -4.109375 Z M 9.5 -4.109375 "/></g></g></g><g fill="#e2853f" fill-opacity="1"><g transform="translate(54.357569, 566.661076)"><g><path d="M 14.125 0 L 10.90625 0 L 10.90625 -6.703125 L 4.625 -6.703125 L 4.625 0 L 1.390625 0 L 1.390625 -15.640625 L 4.625 -15.640625 L 4.625 -9.296875 L 10.90625 -9.296875 L 10.90625 -15.640625 L 14.125 -15.640625 Z M 14.125 0 "/></g></g></g><g fill="#e2853f" fill-opacity="1"><g transform="translate(70.552794, 566.661076)"><g><path d="M 14.25 -7.46875 C 14.25 -5.925781 13.972656 -4.570312 13.421875 -3.40625 C 12.878906 -2.25 12.101562 -1.351562 11.09375 -0.71875 C 10.082031 -0.09375 8.921875 0.21875 7.609375 0.21875 C 6.304688 0.21875 5.144531 -0.09375 4.125 -0.71875 C 3.113281 -1.34375 2.328125 -2.234375 1.765625 -3.390625 C 1.210938 -4.546875 0.929688 -5.875 0.921875 -7.375 L 0.921875 -8.15625 C 0.921875 -9.695312 1.195312 -11.050781 1.75 -12.21875 C 2.3125 -13.382812 3.097656 -14.28125 4.109375 -14.90625 C 5.117188 -15.539062 6.273438 -15.859375 7.578125 -15.859375 C 8.890625 -15.859375 10.050781 -15.539062 11.0625 -14.90625 C 12.070312 -14.28125 12.851562 -13.382812 13.40625 -12.21875 C 13.96875 -11.050781 14.25 -9.703125 14.25 -8.171875 Z M 10.984375 -8.171875 C 10.984375 -9.816406 10.6875 -11.0625 10.09375 -11.90625 C 9.507812 -12.757812 8.671875 -13.1875 7.578125 -13.1875 C 6.503906 -13.1875 5.671875 -12.765625 5.078125 -11.921875 C 4.492188 -11.085938 4.195312 -9.859375 4.1875 -8.234375 L 4.1875 -7.46875 C 4.1875 -5.875 4.476562 -4.632812 5.0625 -3.75 C 5.65625 -2.863281 6.503906 -2.421875 7.609375 -2.421875 C 8.691406 -2.421875 9.519531 -2.84375 10.09375 -3.6875 C 10.675781 -4.539062 10.972656 -5.78125 10.984375 -7.40625 Z M 10.984375 -8.171875 "/></g></g></g><g fill="#e2853f" fill-opacity="1"><g transform="translate(86.393725, 566.661076)"><g><path d="M 1.390625 0 L 1.390625 -15.640625 L 6.875 -15.640625 C 8.769531 -15.640625 10.207031 -15.273438 11.1875 -14.546875 C 12.175781 -13.816406 12.671875 -12.753906 12.671875 -11.359375 C 12.671875 -10.585938 12.472656 -9.910156 12.078125 -9.328125 C 11.679688 -8.742188 11.132812 -8.316406 10.4375 -8.046875 C 11.238281 -7.847656 11.867188 -7.441406 12.328125 -6.828125 C 12.785156 -6.222656 13.015625 -5.476562 13.015625 -4.59375 C 13.015625 -3.09375 12.535156 -1.953125 11.578125 -1.171875 C 10.617188 -0.398438 9.253906 -0.0078125 7.484375 0 Z M 4.625 -6.8125 L 4.625 -2.59375 L 7.375 -2.59375 C 8.132812 -2.59375 8.726562 -2.769531 9.15625 -3.125 C 9.582031 -3.488281 9.796875 -3.988281 9.796875 -4.625 C 9.796875 -6.0625 9.054688 -6.789062 7.578125 -6.8125 Z M 4.625 -9.09375 L 7 -9.09375 C 8.625 -9.113281 9.4375 -9.757812 9.4375 -11.03125 C 9.4375 -11.738281 9.226562 -12.25 8.8125 -12.5625 C 8.40625 -12.875 7.757812 -13.03125 6.875 -13.03125 L 4.625 -13.03125 Z M 4.625 -9.09375 "/></g></g></g><g fill="#e2853f" fill-opacity="1"><g transform="translate(101.085891, 566.661076)"><g><path d="M 1.390625 0 L 1.390625 -15.640625 L 6.875 -15.640625 C 8.769531 -15.640625 10.207031 -15.273438 11.1875 -14.546875 C 12.175781 -13.816406 12.671875 -12.753906 12.671875 -11.359375 C 12.671875 -10.585938 12.472656 -9.910156 12.078125 -9.328125 C 11.679688 -8.742188 11.132812 -8.316406 10.4375 -8.046875 C 11.238281 -7.847656 11.867188 -7.441406 12.328125 -6.828125 C 12.785156 -6.222656 13.015625 -5.476562 13.015625 -4.59375 C 13.015625 -3.09375 12.535156 -1.953125 11.578125 -1.171875 C 10.617188 -0.398438 9.253906 -0.0078125 7.484375 0 Z M 4.625 -6.8125 L 4.625 -2.59375 L 7.375 -2.59375 C 8.132812 -2.59375 8.726562 -2.769531 9.15625 -3.125 C 9.582031 -3.488281 9.796875 -3.988281 9.796875 -4.625 C 9.796875 -6.0625 9.054688 -6.789062 7.578125 -6.8125 Z M 4.625 -9.09375 L 7 -9.09375 C 8.625 -9.113281 9.4375 -9.757812 9.4375 -11.03125 C 9.4375 -11.738281 9.226562 -12.25 8.8125 -12.5625 C 8.40625 -12.875 7.757812 -13.03125 6.875 -13.03125 L 4.625 -13.03125 Z M 4.625 -9.09375 "/></g></g></g><g fill="#e2853f" fill-opacity="1"><g transform="translate(115.778053, 566.661076)"><g><path d="M 4.828125 0 L 1.59375 0 L 1.59375 -15.640625 L 4.828125 -15.640625 Z M 4.828125 0 "/></g></g></g><g fill="#e2853f" fill-opacity="1"><g transform="translate(122.847551, 566.661076)"><g><path d="M 10.8125 -6.78125 L 4.625 -6.78125 L 4.625 -2.59375 L 11.875 -2.59375 L 11.875 0 L 1.390625 0 L 1.390625 -15.640625 L 11.859375 -15.640625 L 11.859375 -13.03125 L 4.625 -13.03125 L 4.625 -9.296875 L 10.8125 -9.296875 Z M 10.8125 -6.78125 "/></g></g></g><g fill="#e2853f" fill-opacity="1"><g transform="translate(135.87561, 566.661076)"><g><path d="M 9.5 -4.109375 C 9.5 -4.710938 9.285156 -5.175781 8.859375 -5.5 C 8.429688 -5.832031 7.65625 -6.175781 6.53125 -6.53125 C 5.414062 -6.894531 4.535156 -7.253906 3.890625 -7.609375 C 2.109375 -8.566406 1.21875 -9.859375 1.21875 -11.484375 C 1.21875 -12.328125 1.457031 -13.078125 1.9375 -13.734375 C 2.414062 -14.398438 3.097656 -14.921875 3.984375 -15.296875 C 4.878906 -15.671875 5.882812 -15.859375 7 -15.859375 C 8.113281 -15.859375 9.109375 -15.65625 9.984375 -15.25 C 10.859375 -14.84375 11.535156 -14.269531 12.015625 -13.53125 C 12.492188 -12.789062 12.734375 -11.953125 12.734375 -11.015625 L 9.515625 -11.015625 C 9.515625 -11.734375 9.289062 -12.289062 8.84375 -12.6875 C 8.394531 -13.082031 7.757812 -13.28125 6.9375 -13.28125 C 6.15625 -13.28125 5.546875 -13.113281 5.109375 -12.78125 C 4.671875 -12.457031 4.453125 -12.019531 4.453125 -11.46875 C 4.453125 -10.957031 4.707031 -10.53125 5.21875 -10.1875 C 5.726562 -9.84375 6.484375 -9.523438 7.484375 -9.234375 C 9.316406 -8.679688 10.648438 -7.992188 11.484375 -7.171875 C 12.316406 -6.359375 12.734375 -5.34375 12.734375 -4.125 C 12.734375 -2.769531 12.222656 -1.707031 11.203125 -0.9375 C 10.179688 -0.164062 8.800781 0.21875 7.0625 0.21875 C 5.863281 0.21875 4.769531 0 3.78125 -0.4375 C 2.789062 -0.882812 2.035156 -1.488281 1.515625 -2.25 C 0.992188 -3.019531 0.734375 -3.910156 0.734375 -4.921875 L 3.96875 -4.921875 C 3.96875 -3.191406 5 -2.328125 7.0625 -2.328125 C 7.832031 -2.328125 8.429688 -2.484375 8.859375 -2.796875 C 9.285156 -3.109375 9.5 -3.546875 9.5 -4.109375 Z M 9.5 -4.109375 "/></g></g></g><g fill="#faca49" fill-opacity="1"><g transform="translate(1278.492142, 134.299362)"><g><path d="M 1.390625 0 L 1.390625 -15.640625 L 6.875 -15.640625 C 8.769531 -15.640625 10.207031 -15.273438 11.1875 -14.546875 C 12.175781 -13.816406 12.671875 -12.753906 12.671875 -11.359375 C 12.671875 -10.585938 12.472656 -9.910156 12.078125 -9.328125 C 11.679688 -8.742188 11.132812 -8.316406 10.4375 -8.046875 C 11.238281 -7.847656 11.867188 -7.441406 12.328125 -6.828125 C 12.785156 -6.222656 13.015625 -5.476562 13.015625 -4.59375 C 13.015625 -3.09375 12.535156 -1.953125 11.578125 -1.171875 C 10.617188 -0.398438 9.253906 -0.0078125 7.484375 0 Z M 4.625 -6.8125 L 4.625 -2.59375 L 7.375 -2.59375 C 8.132812 -2.59375 8.726562 -2.769531 9.15625 -3.125 C 9.582031 -3.488281 9.796875 -3.988281 9.796875 -4.625 C 9.796875 -6.0625 9.054688 -6.789062 7.578125 -6.8125 Z M 4.625 -9.09375 L 7 -9.09375 C 8.625 -9.113281 9.4375 -9.757812 9.4375 -11.03125 C 9.4375 -11.738281 9.226562 -12.25 8.8125 -12.5625 C 8.40625 -12.875 7.757812 -13.03125 6.875 -13.03125 L 4.625 -13.03125 Z M 4.625 -9.09375 "/></g></g></g><g fill="#faca49" fill-opacity="1"><g transform="translate(1293.184306, 134.299362)"><g><path d="M 4.828125 0 L 1.59375 0 L 1.59375 -15.640625 L 4.828125 -15.640625 Z M 4.828125 0 "/></g></g></g><g fill="#faca49" fill-opacity="1"><g transform="translate(1300.253805, 134.299362)"><g><path d="M 14.25 -7.46875 C 14.25 -5.925781 13.972656 -4.570312 13.421875 -3.40625 C 12.878906 -2.25 12.101562 -1.351562 11.09375 -0.71875 C 10.082031 -0.09375 8.921875 0.21875 7.609375 0.21875 C 6.304688 0.21875 5.144531 -0.09375 4.125 -0.71875 C 3.113281 -1.34375 2.328125 -2.234375 1.765625 -3.390625 C 1.210938 -4.546875 0.929688 -5.875 0.921875 -7.375 L 0.921875 -8.15625 C 0.921875 -9.695312 1.195312 -11.050781 1.75 -12.21875 C 2.3125 -13.382812 3.097656 -14.28125 4.109375 -14.90625 C 5.117188 -15.539062 6.273438 -15.859375 7.578125 -15.859375 C 8.890625 -15.859375 10.050781 -15.539062 11.0625 -14.90625 C 12.070312 -14.28125 12.851562 -13.382812 13.40625 -12.21875 C 13.96875 -11.050781 14.25 -9.703125 14.25 -8.171875 Z M 10.984375 -8.171875 C 10.984375 -9.816406 10.6875 -11.0625 10.09375 -11.90625 C 9.507812 -12.757812 8.671875 -13.1875 7.578125 -13.1875 C 6.503906 -13.1875 5.671875 -12.765625 5.078125 -11.921875 C 4.492188 -11.085938 4.195312 -9.859375 4.1875 -8.234375 L 4.1875 -7.46875 C 4.1875 -5.875 4.476562 -4.632812 5.0625 -3.75 C 5.65625 -2.863281 6.503906 -2.421875 7.609375 -2.421875 C 8.691406 -2.421875 9.519531 -2.84375 10.09375 -3.6875 C 10.675781 -4.539062 10.972656 -5.78125 10.984375 -7.40625 Z M 10.984375 -8.171875 "/></g></g></g><g fill="#4cad67" fill-opacity="1"><g transform="translate(1057.976192, 525.421578)"><g><path d="M 10.8125 -6.78125 L 4.625 -6.78125 L 4.625 -2.59375 L 11.875 -2.59375 L 11.875 0 L 1.390625 0 L 1.390625 -15.640625 L 11.859375 -15.640625 L 11.859375 -13.03125 L 4.625 -13.03125 L 4.625 -9.296875 L 10.8125 -9.296875 Z M 10.8125 -6.78125 "/></g></g></g><g fill="#4cad67" fill-opacity="1"><g transform="translate(1071.009014, 525.421578)"><g><path d="M 1.390625 0 L 1.390625 -15.640625 L 6.203125 -15.640625 C 7.578125 -15.640625 8.804688 -15.328125 9.890625 -14.703125 C 10.984375 -14.085938 11.832031 -13.207031 12.4375 -12.0625 C 13.050781 -10.925781 13.359375 -9.628906 13.359375 -8.171875 L 13.359375 -7.453125 C 13.359375 -6.003906 13.054688 -4.710938 12.453125 -3.578125 C 11.859375 -2.441406 11.015625 -1.5625 9.921875 -0.9375 C 8.835938 -0.320312 7.609375 -0.0078125 6.234375 0 Z M 4.625 -13.03125 L 4.625 -2.59375 L 6.171875 -2.59375 C 7.429688 -2.59375 8.394531 -3.003906 9.0625 -3.828125 C 9.726562 -4.648438 10.070312 -5.828125 10.09375 -7.359375 L 10.09375 -8.1875 C 10.09375 -9.78125 9.757812 -10.984375 9.09375 -11.796875 C 8.4375 -12.617188 7.472656 -13.03125 6.203125 -13.03125 Z M 4.625 -13.03125 "/></g></g></g><g fill="#4cad67" fill-opacity="1"><g transform="translate(1085.964351, 525.421578)"><g><path d="M 13.234375 -15.640625 L 13.234375 -5.34375 C 13.234375 -3.625 12.695312 -2.265625 11.625 -1.265625 C 10.550781 -0.273438 9.085938 0.21875 7.234375 0.21875 C 5.410156 0.21875 3.960938 -0.265625 2.890625 -1.234375 C 1.816406 -2.203125 1.269531 -3.53125 1.25 -5.21875 L 1.25 -15.640625 L 4.46875 -15.640625 L 4.46875 -5.3125 C 4.46875 -4.289062 4.710938 -3.546875 5.203125 -3.078125 C 5.691406 -2.609375 6.367188 -2.375 7.234375 -2.375 C 9.046875 -2.375 9.96875 -3.328125 10 -5.234375 L 10 -15.640625 Z M 13.234375 -15.640625 "/></g></g></g><g fill="#4cad67" fill-opacity="1"><g transform="translate(1101.102266, 525.421578)"><g><path d="M 13.671875 -5.203125 C 13.554688 -3.523438 12.9375 -2.203125 11.8125 -1.234375 C 10.6875 -0.265625 9.207031 0.21875 7.375 0.21875 C 5.375 0.21875 3.796875 -0.453125 2.640625 -1.796875 C 1.492188 -3.148438 0.921875 -5.007812 0.921875 -7.375 L 0.921875 -8.328125 C 0.921875 -9.828125 1.1875 -11.148438 1.71875 -12.296875 C 2.25 -13.441406 3.003906 -14.320312 3.984375 -14.9375 C 4.972656 -15.550781 6.117188 -15.859375 7.421875 -15.859375 C 9.222656 -15.859375 10.675781 -15.375 11.78125 -14.40625 C 12.882812 -13.4375 13.523438 -12.078125 13.703125 -10.328125 L 10.46875 -10.328125 C 10.394531 -11.335938 10.113281 -12.070312 9.625 -12.53125 C 9.144531 -12.988281 8.410156 -13.21875 7.421875 -13.21875 C 6.347656 -13.21875 5.546875 -12.832031 5.015625 -12.0625 C 4.484375 -11.289062 4.207031 -10.09375 4.1875 -8.46875 L 4.1875 -7.296875 C 4.1875 -5.609375 4.441406 -4.375 4.953125 -3.59375 C 5.460938 -2.8125 6.269531 -2.421875 7.375 -2.421875 C 8.375 -2.421875 9.117188 -2.644531 9.609375 -3.09375 C 10.097656 -3.550781 10.378906 -4.253906 10.453125 -5.203125 Z M 13.671875 -5.203125 "/></g></g></g><g fill="#4cad67" fill-opacity="1"><g transform="translate(1116.154261, 525.421578)"><g><path d="M 10.234375 -3.21875 L 4.578125 -3.21875 L 3.5 0 L 0.078125 0 L 5.890625 -15.640625 L 8.890625 -15.640625 L 14.734375 0 L 11.3125 0 Z M 5.453125 -5.828125 L 9.359375 -5.828125 L 7.390625 -11.6875 Z M 5.453125 -5.828125 "/></g></g></g><g fill="#4cad67" fill-opacity="1"><g transform="translate(1131.614388, 525.421578)"><g><path d="M 13.171875 -13.03125 L 8.375 -13.03125 L 8.375 0 L 5.15625 0 L 5.15625 -13.03125 L 0.4375 -13.03125 L 0.4375 -15.640625 L 13.171875 -15.640625 Z M 13.171875 -13.03125 "/></g></g></g><g fill="#4cad67" fill-opacity="1"><g transform="translate(1145.882349, 525.421578)"><g><path d="M 4.828125 0 L 1.59375 0 L 1.59375 -15.640625 L 4.828125 -15.640625 Z M 4.828125 0 "/></g></g></g><g fill="#4cad67" fill-opacity="1"><g transform="translate(1152.954322, 525.421578)"><g><path d="M 14.25 -7.46875 C 14.25 -5.925781 13.972656 -4.570312 13.421875 -3.40625 C 12.878906 -2.25 12.101562 -1.351562 11.09375 -0.71875 C 10.082031 -0.09375 8.921875 0.21875 7.609375 0.21875 C 6.304688 0.21875 5.144531 -0.09375 4.125 -0.71875 C 3.113281 -1.34375 2.328125 -2.234375 1.765625 -3.390625 C 1.210938 -4.546875 0.929688 -5.875 0.921875 -7.375 L 0.921875 -8.15625 C 0.921875 -9.695312 1.195312 -11.050781 1.75 -12.21875 C 2.3125 -13.382812 3.097656 -14.28125 4.109375 -14.90625 C 5.117188 -15.539062 6.273438 -15.859375 7.578125 -15.859375 C 8.890625 -15.859375 10.050781 -15.539062 11.0625 -14.90625 C 12.070312 -14.28125 12.851562 -13.382812 13.40625 -12.21875 C 13.96875 -11.050781 14.25 -9.703125 14.25 -8.171875 Z M 10.984375 -8.171875 C 10.984375 -9.816406 10.6875 -11.0625 10.09375 -11.90625 C 9.507812 -12.757812 8.671875 -13.1875 7.578125 -13.1875 C 6.503906 -13.1875 5.671875 -12.765625 5.078125 -11.921875 C 4.492188 -11.085938 4.195312 -9.859375 4.1875 -8.234375 L 4.1875 -7.46875 C 4.1875 -5.875 4.476562 -4.632812 5.0625 -3.75 C 5.65625 -2.863281 6.503906 -2.421875 7.609375 -2.421875 C 8.691406 -2.421875 9.519531 -2.84375 10.09375 -3.6875 C 10.675781 -4.539062 10.972656 -5.78125 10.984375 -7.40625 Z M 10.984375 -8.171875 "/></g></g></g><g fill="#4cad67" fill-opacity="1"><g transform="translate(1168.801092, 525.421578)"><g><path d="M 14.109375 0 L 10.890625 0 L 4.625 -10.296875 L 4.625 0 L 1.390625 0 L 1.390625 -15.640625 L 4.625 -15.640625 L 10.90625 -5.328125 L 10.90625 -15.640625 L 14.109375 -15.640625 Z M 14.109375 0 "/></g></g></g></svg>